<?xml version="1.0" encoding="utf-8"?>
<!-- Generator: Adobe Illustrator 16.0.0, SVG Export Plug-In . SVG Version: 6.00 Build 0)  -->
<!DOCTYPE svg PUBLIC "-//W3C//DTD SVG 1.1//EN" "http://www.w3.org/Graphics/SVG/1.1/DTD/svg11.dtd">
<svg version="1.1" xmlns="http://www.w3.org/2000/svg" xmlns:xlink="http://www.w3.org/1999/xlink" x="0px" y="0px"
	 width="764.359px" height="625.359px" viewBox="0 0 764.359 625.359" enable-background="new 0 0 764.359 625.359"
	 xml:space="preserve">
<g id="pantones">
</g>
<g id="fondo">
</g>
<g id="Bloomberg">
</g>
<g id="hashtag">
</g>
<g id="textos">
	<g>
		<g>
			<g>
				<g>
					<path fill="#20201E" d="M433.326,209.867c0.377,0.285,0.758,0.565,1.151,0.828
						C434.083,210.432,433.703,210.152,433.326,209.867z"/>
					<path fill="#20201E" d="M370.929,91.916c0.012,0.02,0.022,0.039,0.036,0.056C370.952,91.955,370.941,91.936,370.929,91.916z"/>
					<path fill="#20201E" d="M372.416,94.504c0.012,0.02,0.022,0.042,0.033,0.064C372.438,94.545,372.427,94.523,372.416,94.504z"/>
					<path fill="#20201E" d="M369.333,89.42c0.008,0.008,0.014,0.02,0.019,0.028C369.347,89.439,369.341,89.428,369.333,89.42z"/>
					<path fill="#20201E" d="M359.649,78.156c0.003,0,0.003,0.003,0.009,0.006C359.652,78.159,359.652,78.156,359.649,78.156z"/>
					<path fill="#20201E" d="M94.759,93.657c-0.155,0.077-0.311,0.152-0.471,0.227C94.449,93.81,94.604,93.734,94.759,93.657z"/>
					<path fill="#20201E" d="M431.707,208.536c0.05,0.044,0.1,0.086,0.149,0.127C431.806,208.622,431.756,208.58,431.707,208.536z"
						/>
					<path fill="#20201E" d="M89.54,95.373c-0.235,0.042-0.471,0.077-0.709,0.108C89.069,95.45,89.304,95.415,89.54,95.373z"/>
					<path fill="#20201E" d="M373.783,97.175c0.012,0.016,0.017,0.03,0.022,0.047C373.799,97.205,373.794,97.191,373.783,97.175z"/>
					<path fill="#20201E" d="M92.351,94.659c-0.288,0.097-0.575,0.188-0.869,0.271C91.776,94.847,92.063,94.756,92.351,94.659z"/>
					<path fill="#20201E" d="M349.971,70.795c0.062,0.039,0.125,0.078,0.187,0.116C350.096,70.873,350.033,70.833,349.971,70.795z"
						/>
					<path fill="#20201E" d="M344.68,67.82c0.033,0.017,0.072,0.033,0.104,0.052C344.752,67.853,344.713,67.836,344.68,67.82z"/>
					<path fill="#20201E" d="M347.356,69.245c0.053,0.031,0.107,0.061,0.163,0.091C347.463,69.306,347.409,69.276,347.356,69.245z"
						/>
					<path fill="#20201E" d="M357.367,76.15c0.026,0.024,0.055,0.049,0.086,0.074C357.421,76.2,357.393,76.175,357.367,76.15z"/>
					<path fill="#20201E" d="M93.613,94.183c-0.166,0.069-0.332,0.141-0.503,0.208C93.281,94.324,93.447,94.252,93.613,94.183z"/>
					<path fill="#20201E" d="M90.785,95.118c-0.219,0.053-0.443,0.097-0.664,0.144C90.341,95.215,90.564,95.171,90.785,95.118z"/>
					<path fill="#20201E" d="M354.986,74.254c0.05,0.036,0.094,0.072,0.145,0.11C355.08,74.326,355.036,74.29,354.986,74.254z"/>
					<path fill="#20201E" d="M95.854,93.065c-0.127,0.072-0.257,0.141-0.384,0.213C95.597,93.206,95.727,93.137,95.854,93.065z"/>
					<path fill="#20201E" d="M352.518,72.466c0.061,0.042,0.121,0.083,0.177,0.122C352.639,72.55,352.579,72.508,352.518,72.466z"/>
					<path fill="#FFFFFF" d="M30.697,159.704c13.932,0,25.223,11.394,25.223,25.45c0,0.863-0.044,1.718-0.127,2.56
						c6.167,1.466,12.681,2.233,19.429,2.233c22.848,0,41.921-7.636,55.593-18.645v-57.533h-60.99v26.634h21.588v12.432
						c-3.24,1.774-7.197,2.839-14.394,2.839c-17.631,0-30.046-12.075-30.046-29.654v-0.354c0-16.871,11.875-29.3,28.249-29.3
						c10.433,0,19.609,3.908,27.888,10.832l23.567-28.057c-9.163-7.854-20.028-13.63-32.692-16.588
						c6.21,2.768,10.517,8.773,10.517,15.739c0,0.291-0.011,0.576-0.022,0.861c-0.006,0.097-0.017,0.191-0.021,0.285
						c-0.015,0.188-0.028,0.379-0.045,0.564c-0.011,0.113-0.027,0.224-0.044,0.337c-0.02,0.166-0.039,0.335-0.066,0.501
						c-0.017,0.119-0.038,0.238-0.062,0.354c-0.027,0.157-0.056,0.313-0.085,0.467c-0.024,0.125-0.053,0.247-0.084,0.369
						c-0.032,0.149-0.068,0.296-0.107,0.442c-0.03,0.125-0.066,0.246-0.1,0.371c-0.041,0.141-0.083,0.282-0.127,0.423
						c-0.039,0.125-0.077,0.249-0.122,0.371c-0.045,0.136-0.094,0.271-0.144,0.407c-0.045,0.125-0.092,0.249-0.139,0.374
						c-0.053,0.127-0.104,0.254-0.16,0.382c-0.053,0.127-0.105,0.251-0.163,0.379c-0.053,0.119-0.113,0.235-0.169,0.354
						c-0.062,0.13-0.125,0.26-0.188,0.387c-0.056,0.105-0.117,0.21-0.172,0.318c-0.072,0.133-0.144,0.269-0.222,0.401
						c-0.05,0.083-0.1,0.166-0.149,0.249c-0.471,0.783-1.001,1.53-1.589,2.23c-0.032,0.039-0.065,0.081-0.096,0.119
						c-0.136,0.155-0.274,0.31-0.413,0.462c-0.041,0.044-0.083,0.091-0.124,0.135c-0.141,0.149-0.285,0.296-0.429,0.443
						c-0.045,0.044-0.089,0.088-0.133,0.133c-0.149,0.144-0.3,0.285-0.455,0.426c-0.04,0.039-0.082,0.078-0.127,0.116
						c-0.16,0.144-0.32,0.282-0.483,0.418c-0.042,0.033-0.081,0.066-0.119,0.1c-0.173,0.138-0.346,0.277-0.521,0.41
						c-0.033,0.025-0.066,0.05-0.1,0.075c-0.188,0.138-0.377,0.277-0.567,0.407c-0.02,0.014-0.039,0.027-0.059,0.039
						c-0.338,0.232-0.686,0.451-1.041,0.662c-0.127,0.072-0.257,0.141-0.384,0.213c-0.235,0.13-0.471,0.257-0.711,0.379
						c-0.155,0.077-0.311,0.152-0.471,0.227c-0.222,0.105-0.449,0.202-0.676,0.299c-0.166,0.069-0.332,0.141-0.503,0.208
						c-0.249,0.097-0.505,0.183-0.759,0.269c-0.288,0.097-0.575,0.188-0.869,0.271c-0.232,0.064-0.462,0.13-0.697,0.188
						c-0.221,0.053-0.443,0.097-0.664,0.144c-0.194,0.039-0.388,0.078-0.581,0.111c-0.235,0.042-0.471,0.077-0.709,0.108
						c-0.072,0.011-0.144,0.025-0.216,0.033c-1.544,0.426-3.166,0.656-4.845,0.656c-10.061,0-18.22-8.156-18.22-18.216
						c0-8.314,5.572-15.321,13.18-17.507l0,0c-1.566-0.078-3.155-0.127-4.769-0.127c-39.761,0-69.451,27.7-69.451,64.812v0.357
						c0,14.854,4.683,27.833,12.681,38.175C21.099,161.159,25.729,159.704,30.697,159.704z"/>
					<path fill="#FFFFFF" d="M142.891,62.982v124.299H164.5c0-0.053-0.006-0.105-0.006-0.157c0-9.468,7.608-17.145,16.993-17.145
						c9.382,0,16.986,7.677,16.986,17.145c0,0.052,0,0.104-0.003,0.157h45.896v-35.512h-59.299v-25.862
						c-7.289-4.605-12.107-12.553-12.107-21.592c0-9.042,4.818-16.99,12.107-21.595V62.982H142.891z"/>
					<path fill="#FFFFFF" d="M373.783,97.175c-0.423-0.88-0.868-1.75-1.334-2.607c-0.011-0.022-0.021-0.044-0.033-0.064
						c-0.465-0.855-0.949-1.699-1.45-2.532c-0.014-0.017-0.024-0.036-0.036-0.056c-0.506-0.835-1.031-1.66-1.577-2.468
						c-0.005-0.008-0.011-0.02-0.019-0.028c-2.766-4.109-6.012-7.884-9.676-11.258c-0.006-0.003-0.006-0.006-0.009-0.006
						c-0.716-0.662-1.449-1.303-2.196-1.932c-0.031-0.025-0.06-0.05-0.086-0.074c-0.731-0.609-1.479-1.207-2.236-1.786
						c-0.051-0.039-0.095-0.075-0.145-0.11c-0.75-0.57-1.514-1.126-2.291-1.666c-0.056-0.039-0.116-0.081-0.177-0.122
						c-0.772-0.534-1.562-1.051-2.36-1.555c-0.062-0.039-0.125-0.078-0.187-0.116c-0.805-0.501-1.622-0.988-2.452-1.458
						c-0.056-0.031-0.11-0.061-0.163-0.091c-0.844-0.473-1.701-0.933-2.571-1.373c-0.032-0.019-0.071-0.036-0.104-0.052
						c-0.894-0.451-1.799-0.883-2.718-1.298l0,0c-8.861-3.982-18.869-6.202-29.584-6.202c-38.357,0-68.012,28.766-68.012,64.812
						v0.357c0,36.046,29.299,64.458,67.654,64.458c38.354,0,68.011-28.769,68.011-64.815v-0.354c0-8.847-1.771-17.23-5.001-24.849
						c-0.384-0.913-0.794-1.815-1.226-2.707C373.799,97.205,373.794,97.191,373.783,97.175z M338.124,127.017
						c0,13.035-9.655,24.796-24.998,24.796c-15.518,0-25.345-11.919-25.345-25.115v-0.318c0-13.035,9.652-24.796,24.999-24.796
						c15.517,0,25.344,11.922,25.344,25.115V127.017z"/>
					<path fill="#FFFFFF" d="M447.802,165.999c10.188,0,18.894,6.366,22.445,15.365l0,0c0.893,1.677,1.594,3.471,2.055,5.353
						c24.982-2.837,37.918-16.265,37.918-33.882v-0.357c0-17.045-10.384-25.569-26.496-30.185
						c13.429-4.619,22.379-13.674,22.379-28.411v-0.357c0-8.521-3.223-14.914-7.7-19.353c-7.339-7.281-18.26-11.189-35.629-11.189
						h-55.687h-14.496v31.641v92.658h31.261C425.358,175.282,435.503,165.999,447.802,165.999z M433.411,94.413h18.083
						c8.956,0,13.429,3.02,13.429,8.524v0.354c0,5.505-4.296,8.524-13.248,8.524h-18.264V94.413z M433.411,137.386h21.127
						c9.133,0,13.608,3.728,13.608,9.055v0.354c0,5.327-4.654,9.058-13.785,9.058h-20.95V137.386z"/>
					<path fill="#FFFFFF" d="M532.847,187.281c2.856-12.598,14.025-22.001,27.377-22.001c6.104,0,11.753,1.973,16.36,5.311h29.025
						l6.665,16.691h45.754L604.891,62.097h-41.789l-53.14,125.185H532.847z M583.636,110.926l11.526,30.188h-23.056L583.636,110.926
						z"/>
					<path fill="#20201E" d="M704.171,163.002c0.033,0.008,0.067,0.014,0.104,0.019C704.239,163.016,704.205,163.01,704.171,163.002
						z"/>
					<path fill="#20201E" d="M702.804,162.676c0.02,0.005,0.039,0.008,0.056,0.014C702.843,162.684,702.824,162.681,702.804,162.676
						z"/>
					<path fill="#20201E" d="M705.602,163.21c0.036,0.005,0.069,0.005,0.108,0.008C705.671,163.215,705.638,163.215,705.602,163.21z
						"/>
					<path fill="#FFFFFF" d="M732.542,151.769c7.571,3.933,12.77,12.019,12.77,21.359c0,5.297-1.675,10.19-4.501,14.153h23.549
						v-35.512H732.542z"/>
					<path fill="#FFFFFF" d="M701.504,162.232c-5.834-2.266-9.975-7.973-9.975-14.659c0-8.034,5.978-14.654,13.688-15.592V62.982
						h-42.065v124.299h40.301c-2.826-3.963-4.501-8.856-4.501-14.153C698.952,169.204,699.876,165.501,701.504,162.232z"/>
					<path fill="#FFFFFF" d="M149.328,319.673V195.376h-44.003l-27.049,43.682l-25.624-41.383
						c-4.332,7.716-12.537,12.927-21.955,12.927c-10.323,0-19.195-6.263-23.097-15.227H7.229v124.296h41.294v-61.616l29.034,44.214
						h0.72l29.033-44.214v61.616H149.328z"/>
					<path fill="#FFFFFF" d="M192.955,313.122c10.4,5.864,22.719,9.216,36.128,9.216c39.035,0,69.214-28.766,69.214-64.812v-0.357
						c0-36.046-29.816-64.458-68.854-64.458c-39.033,0-69.215,28.766-69.215,64.815v0.354c0,10.441,2.507,20.241,7.013,28.898
						c3.021-7.135,10.04-12.133,18.216-12.133c10.937,0,19.801,8.944,19.801,19.981
						C205.256,302.985,200.172,310.139,192.955,313.122z M214.14,258.002c0-8.43,6.557-16.038,16.979-16.038
						c10.542,0,17.217,7.71,17.217,16.245v0.205c0,8.43-6.557,16.038-16.979,16.038c-10.54,0-17.216-7.71-17.216-16.243V258.002z"/>
					<path fill="#FFFFFF" d="M557.09,229.469v-7.671c-13.472-1.508-24.071-12.633-24.901-26.421h-59.424
						c-1.527,11.333-11.274,20.128-23.203,20.477v103.82h108.431v-9.005c-0.365,0.019-0.73,0.03-1.099,0.03
						c-10.844,0-19.635-8.441-19.635-18.855c0-2.194,0.397-4.303,1.115-6.263h-47.386v-13.495h61.602v-30.01h-61.602v-12.606H557.09
						z"/>
					<path fill="#FFFFFF" d="M628.321,236.216l-21.767-40.84h-18.296c-0.617,10.25-6.634,19.026-15.219,23.477l33.877,56.783v44.037
						h16.016c3.722-9.136,12.457-15.551,22.638-15.551c1.289,0,2.555,0.103,3.789,0.302v-29.319l47.886-79.729h-46.978
						L628.321,236.216z"/>
					<path fill="#FFFFFF" d="M156.652,329.361l-17.807,59.405l-20.324-59.756H82.192l-13.625,40.063
						c12.454,1.295,22.156,11.673,22.156,24.285c0,9.036-4.986,16.923-12.392,21.146c-4.077,2.895-9.075,4.605-14.483,4.605
						c-13.69,0-24.788-10.935-24.788-24.421c0-9.039,4.987-16.925,12.396-21.149c1.55-1.099,3.233-2.029,5.023-2.756l-12.415-41.421
						H0l41.186,124.646h36.688l22.123-61.527l22.12,61.527h36.692l41.186-124.646H156.652z"/>
					<path fill="#FFFFFF" d="M248.499,405.739h52.986c-5.003-5.422-8.083-12.764-8.083-20.856c0-3.141,0.465-6.175,1.325-9.022
						h-34.104c-2.778,1.821-6.133,2.884-9.744,2.884c-9.592,0-17.368-7.5-17.368-16.752c0-9.251,7.776-16.751,17.368-16.751
						c9.593,0,17.369,7.5,17.369,16.751c0,0.443-0.025,0.88-0.061,1.314h33.981c3.442-3.49,7.716-6.1,12.484-7.492v-26.455H207.042
						v64.488c0.116-0.008,0.229-0.019,0.346-0.027c0.465-0.025,0.934-0.039,1.406-0.039c14.02,0,25.386,11.228,25.386,25.082
						c0,2.917-0.512,5.718-1.438,8.322c-3.161,10.298-12.839,17.795-24.293,17.795c-0.471,0-0.941-0.014-1.406-0.042v8.181h26.8
						h45.42h36.293v-33.946h-67.056V405.739z"/>
					<path fill="#FFFFFF" d="M367.917,405.739h61.903v-29.878h-61.903v-12.553h66.425v-33.946h-108.06v25.566
						c14.372,1.882,25.485,14.571,25.485,29.956s-11.113,28.073-25.485,29.955v38.283h108.967v-33.946h-67.332V405.739z"/>
					<path fill="#FFFFFF" d="M573.053,329.361h-48.885l-35.762,46.323v-46.323h-42.055v123.76h42.055v-22.093
						c-7.834-2.377-13.558-9.869-13.558-18.744c0-10.791,8.449-19.536,18.874-19.536s18.874,8.745,18.874,19.536
						c0,5.46-2.166,10.397-5.659,13.942l16.874,26.895h50.141l-44.75-70.012L573.053,329.361z"/>
					<path fill="#20201E" d="M428.595,205.143c0.674,1.005,1.421,1.96,2.236,2.854C430.018,207.103,429.269,206.147,428.595,205.143
						z"/>
					<path fill="#20201E" d="M96.895,92.403c-0.338,0.232-0.686,0.451-1.041,0.662C96.209,92.854,96.557,92.636,96.895,92.403z"/>
					<path fill="#20201E" d="M95.47,93.278c-0.235,0.13-0.471,0.257-0.711,0.379C95,93.536,95.235,93.408,95.47,93.278z"/>
					<path fill="#20201E" d="M94.289,93.884c-0.222,0.105-0.449,0.202-0.676,0.299C93.839,94.086,94.067,93.989,94.289,93.884z"/>
					<path fill="#20201E" d="M91.482,94.93c-0.232,0.064-0.462,0.13-0.697,0.188C91.02,95.06,91.25,94.994,91.482,94.93z"/>
					<path fill="#20201E" d="M93.11,94.391c-0.249,0.097-0.505,0.183-0.759,0.269C92.605,94.573,92.861,94.487,93.11,94.391z"/>
					<path fill="#20201E" d="M88.615,95.514c0.072-0.008,0.144-0.022,0.216-0.033c-0.061,0.008-0.118,0.014-0.177,0.019
						C88.643,95.506,88.628,95.512,88.615,95.514z"/>
					<path fill="#20201E" d="M90.121,95.262c-0.194,0.039-0.388,0.078-0.581,0.111C89.733,95.34,89.926,95.301,90.121,95.262z"/>
					<path fill="#20201E" d="M102.109,86.891c-0.471,0.783-1.001,1.528-1.589,2.23C101.108,88.421,101.638,87.674,102.109,86.891z"
						/>
					<path fill="#20201E" d="M93.24,62.39c0.246,0.055,0.498,0.105,0.744,0.163C93.738,62.495,93.486,62.445,93.24,62.39
						L93.24,62.39z"/>
					<path fill="#20201E" d="M93.984,62.553c-0.471-0.208-0.952-0.393-1.442-0.564c0.236,0.13,0.469,0.263,0.698,0.401
						C93.486,62.445,93.738,62.495,93.984,62.553z"/>
					<polygon fill="#20201E" points="428.595,205.143 428.595,205.14 428.595,205.14 					"/>
					<path fill="#20201E" d="M433.326,209.867c-0.507-0.382-0.996-0.783-1.47-1.204c-0.05-0.042-0.1-0.083-0.149-0.127
						c-1.138-1.029-2.181-2.167-3.111-3.396c0,0,0,0,0,0.002c0.674,1.005,1.423,1.96,2.236,2.854
						c0.009,0.008,0.018,0.017,0.023,0.025c0.265,0.285,0.533,0.567,0.813,0.841c0.03,0.033,0.063,0.061,0.094,0.094
						c0.258,0.249,0.516,0.495,0.781,0.733c0.074,0.063,0.148,0.125,0.224,0.191c0.23,0.202,0.463,0.401,0.703,0.595
						c0.142,0.116,0.291,0.225,0.435,0.335c0.178,0.138,0.354,0.279,0.537,0.41c0.332,0.244,0.672,0.479,1.019,0.703v-0.606
						c-0.332-0.2-0.658-0.407-0.982-0.623C434.083,210.432,433.703,210.152,433.326,209.867z"/>
					<path fill="#FFFFFF" d="M433.904,210.811c-0.144-0.11-0.293-0.219-0.435-0.335c-0.24-0.193-0.473-0.393-0.703-0.595
						c-0.075-0.066-0.149-0.127-0.224-0.191c-0.266-0.238-0.523-0.484-0.781-0.733c-0.03-0.034-0.063-0.061-0.094-0.094
						c-0.279-0.274-0.548-0.556-0.813-0.841c-0.006-0.008-0.015-0.017-0.023-0.025c-0.815-0.894-1.563-1.849-2.236-2.854
						c0-0.002,0-0.002,0-0.002c-2.142-2.832-3.686-6.15-4.433-9.764h-30.31v54.868l-44.659-54.868h-39.279v124.296h41.612v-57.354
						l46.626,57.354h37.307v-107.75c-0.347-0.225-0.687-0.459-1.019-0.703C434.258,211.09,434.082,210.949,433.904,210.811z"/>
				</g>
			</g>
			<g>
				<ellipse fill="#FFDD00" cx="520.806" cy="19.454" rx="22.524" ry="19.454"/>
				<path fill="#FFDD00" d="M131.25,51.99c15.792,0,28.595-11.278,28.595-25.187c0-13.911-12.803-25.187-28.595-25.187
					c-15.796,0-28.599,11.276-28.599,25.187C102.652,40.712,115.455,51.99,131.25,51.99z"/>
				<ellipse fill="#FFDD00" cx="724.631" cy="291.72" rx="19.106" ry="18.591"/>
				<path fill="#FFDD00" d="M600.538,404.369c-14.377,0-26.034,11.191-26.034,25.001c0,13.807,11.657,24.999,26.034,24.999
					s26.033-11.191,26.033-24.999C626.571,415.561,614.915,404.369,600.538,404.369z"/>
				<path fill="#FFDD00" d="M407.087,62.982c-2.173-15.866-15.855-28.099-32.419-28.099c-17.775,0-32.23,14.087-32.706,31.638
					c15.071,6.775,26.816,18.653,33.068,33.406c6.479-0.072,12.507-2.012,17.561-5.305V62.982H407.087z"/>
				<path fill="#FFDD00" d="M93.24,62.39c-0.229-0.139-0.462-0.271-0.698-0.401c-2.604-1.434-5.592-2.25-8.771-2.25
					c-1.75,0-3.438,0.249-5.04,0.708c-7.608,2.187-13.18,9.193-13.18,17.507c0,10.06,8.159,18.216,18.22,18.216
					c1.679,0,3.301-0.23,4.845-0.656c7.708-2.123,13.37-9.177,13.37-17.56C101.985,71.362,98.484,65.589,93.24,62.39z"/>
				<path fill="#FFDD00" d="M199.669,78.522c-5.392,0-10.406,1.547-14.602,4.198c-7.289,4.605-12.107,12.554-12.107,21.595
					c0,9.039,4.818,16.987,12.107,21.592c4.195,2.651,9.21,4.198,14.602,4.198c14.75,0,26.711-11.546,26.711-25.79
					C226.38,90.07,214.419,78.522,199.669,78.522z"/>
				<path fill="#FFDD00" d="M470.248,181.364c-3.552-9-12.258-15.365-22.445-15.365c-12.299,0-22.444,9.283-23.95,21.282
					c-0.127,1.013-0.198,2.042-0.198,3.089c0,1.716,0.177,3.39,0.509,5.006c0.747,3.614,2.291,6.932,4.433,9.764
					c1.872,2.477,4.201,4.578,6.864,6.177c3.614,2.172,7.831,3.426,12.343,3.426c13.34,0,24.154-10.912,24.154-24.373
					C471.957,187.188,471.345,184.151,470.248,181.364z"/>
				<path fill="#FFDD00" d="M621.011,329.539c0-0.883,0.047-1.758,0.13-2.618c-17.438,1.021-31.255,15.008-31.255,32.119
					c0,17.776,14.91,32.186,33.303,32.186c18.391,0,33.299-14.41,33.299-32.186c0-2.194-0.228-4.336-0.659-6.407
					c-3.124,1.489-6.597,2.325-10.259,2.325C632.007,354.958,621.011,343.578,621.011,329.539z"/>
				<path fill="#FFDD00" d="M722.133,197.04c7.666,0,14.456-3.841,18.677-9.758c2.826-3.963,4.501-8.856,4.501-14.153
					c0-9.34-5.198-17.427-12.77-21.359c-3.13-1.627-6.667-2.549-10.408-2.549l-0.034,2.549c-1.815,6.639-7.843,11.516-14.999,11.516
					c-1.977,0-3.86-0.374-5.596-1.052c-1.628,3.269-2.553,6.972-2.553,10.896c0,5.297,1.675,10.19,4.501,14.153
					C707.672,193.198,714.466,197.04,722.133,197.04z"/>
				<ellipse fill="#FFDD00" cx="556.894" cy="291.843" rx="19.635" ry="18.855"/>
				<path fill="#FFDD00" d="M233.832,453.398c0,10.295,10.173,18.642,22.721,18.642c12.547,0,22.718-8.347,22.718-18.642
					c0-0.091-0.009-0.183-0.009-0.277h-45.42C233.839,453.215,233.832,453.307,233.832,453.398z"/>
				<path fill="#FFDD00" d="M250.878,345.242c-9.592,0-17.368,7.5-17.368,16.751c0,9.252,7.776,16.752,17.368,16.752
					c3.611,0,6.966-1.063,9.744-2.884c4.248-2.781,7.144-7.331,7.564-12.553c0.035-0.435,0.061-0.872,0.061-1.314
					C268.248,352.742,260.471,345.242,250.878,345.242z"/>
				<path fill="#FFDD00" d="M68.041,370.62c-1.364-0.227-2.762-0.354-4.193-0.354c-2.509,0-4.923,0.382-7.206,1.066
					c-1.824,0.548-3.567,1.287-5.187,2.208c-7.408,4.224-12.396,12.11-12.396,21.149c0,13.486,11.098,24.421,24.788,24.421
					c5.408,0,10.406-1.71,14.483-4.605c6.237-4.436,10.306-11.656,10.306-19.815C88.637,382.608,79.732,372.582,68.041,370.62z"/>
				<path fill="#FFDD00" d="M208.448,394.821c-0.471,0-0.941,0.014-1.406,0.039c-13.364,0.722-23.978,11.657-23.978,25.041
					c0,13.386,10.613,24.32,23.978,25.04c0.465,0.028,0.936,0.042,1.406,0.042c14.02,0,25.384-11.228,25.384-25.082
					C233.832,406.049,222.467,394.821,208.448,394.821z"/>
			</g>
		</g>
		<circle fill="#FFDD00" cx="549.328" cy="533.948" r="91.41"/>
		<g>
			<path fill="#FFFFFF" d="M41.435,483.27h29.734l18.279,29.978l18.279-29.978h29.733v85.303H109.07v-42.285l-19.622,30.34h-0.483
				l-19.622-30.34v42.285H41.435V483.27z"/>
			<path fill="#FFFFFF" d="M144.424,535.67v-0.243c0-19.865,14.258-34.973,34.239-34.973c23.643,0,34.61,16.45,34.61,36.677
				c0,1.461,0,3.169-0.122,4.63H170.38c1.951,5.851,6.582,8.895,12.551,8.895c4.998,0,9.139-2.313,13.527-6.822l14.867,11.823
				c-6.581,8.53-15.963,14.499-30.343,14.499C159.169,570.156,144.424,556.387,144.424,535.67z M179.641,474.008l26.93,6.949
				l-20.108,16.45h-18.52L179.641,474.008z M188.05,529.576c-0.61-6.334-4.386-9.99-9.26-9.99c-4.632,0-7.926,3.899-8.777,9.99
				H188.05z"/>
			<path fill="#FFFFFF" d="M235.829,535.305l-21.445-33.268h29.854l7.312,13.403l7.434-13.403h29.368l-21.326,33.268l21.448,33.268
				h-29.855l-7.434-13.527l-7.434,13.527h-29.366L235.829,535.305z"/>
			<path fill="#FFFFFF" d="M291.53,479.614h28.639v17.67H291.53V479.614z M292.017,502.037h27.662v66.536h-27.662V502.037z"/>
			<path fill="#FFFFFF" d="M326.146,535.67v-0.243c0-18.645,14.621-34.854,36.313-34.854c14.623,0,24.981,7.555,30.099,18.401
				l-19.861,11.214c-2.314-4.265-5.242-6.703-9.751-6.703c-5.85,0-10.233,5.117-10.233,11.698v0.244
				c0,6.946,4.384,11.941,9.868,11.941c4.874,0,7.678-2.438,10.359-6.703l20.108,11.458c-5.973,11.087-16.087,18.155-31.929,18.155
				C340.888,570.278,326.146,554.314,326.146,535.67z"/>
			<path fill="#FFFFFF" d="M393.421,535.548v-0.243c0-18.767,15.598-34.851,37.532-34.851c21.813,0,37.289,15.841,37.289,34.604
				v0.247c0,18.766-15.597,34.851-37.532,34.851C408.897,570.156,393.421,554.314,393.421,535.548z M441.677,535.548v-0.243
				c0-6.579-4.873-11.82-10.967-11.82c-6.216,0-10.722,5.241-10.722,11.573v0.247c0,6.581,4.873,11.817,10.965,11.817
				C437.169,547.122,441.677,541.886,441.677,535.548z"/>
		</g>
		<g>
			<path fill="#009051" d="M472.951,546.621l18.863-13.527c2.861-2.018,3.966-3.775,3.966-5.53c0-1.951-1.494-3.382-4.096-3.382
				c-2.603,0-5.01,1.625-8.782,5.657l-10.016-8.519c5.27-6.506,10.6-10.018,20.098-10.018c10.406,0,17.887,6.246,17.887,14.895v0.13
				c0,6.96-3.706,10.732-9.171,14.245l-8.129,5.206h17.757v11.9h-38.377V546.621z"/>
			<path fill="#009051" d="M514.305,535.044v-0.13c0-12.553,8.197-23.742,21.984-23.742c13.788,0,21.855,11.059,21.855,23.612v0.13
				c0,12.554-8.194,23.74-21.985,23.74C522.37,558.654,514.305,547.598,514.305,535.044z M543.054,535.044v-0.13
				c0-6.246-2.796-10.539-6.895-10.539s-6.764,4.163-6.764,10.409v0.13c0,6.244,2.798,10.536,6.894,10.536
				C540.389,545.45,543.054,541.288,543.054,535.044z"/>
			<path fill="#009051" d="M560.406,546.621l18.863-13.527c2.861-2.018,3.969-3.775,3.969-5.53c0-1.951-1.497-3.382-4.102-3.382
				c-2.602,0-5.006,1.625-8.778,5.657l-10.019-8.519c5.27-6.506,10.605-10.018,20.098-10.018c10.409,0,17.889,6.246,17.889,14.895
				v0.13c0,6.96-3.708,10.732-9.171,14.245l-8.131,5.206h17.757v11.9h-38.375V546.621z"/>
			<path fill="#009051" d="M599.807,550.459l9.042-9.302c3.381,3.188,6.957,4.943,10.731,4.943c3.382,0,5.203-1.494,5.203-3.642
				v-0.13c0-2.211-1.951-3.642-5.983-3.642h-6.439l-2.018-6.764l10.018-7.937h-16.912v-11.837h34.995v10.472l-10.212,7.674
				c6.827,1.821,11.253,5.79,11.253,12.944v0.13c0,9.822-8.588,15.285-18.67,15.285C611.45,558.654,604.813,555.596,599.807,550.459
				z"/>
		</g>
	</g>
</g>
<g id="highlight">
</g>
<g id="barras_menu">
</g>
<g id="Logo_MIDE">
</g>
<g id="Contacto">
</g>
<g id="Logros">
</g>
<g id="Aliados">
</g>
<g id="Recursos">
</g>
<g id="Cartelera">
</g>
<g id="Presentación">
</g>
<g id="Home_00000100372908513593707910000013442467099043403707_">
</g>
<g id="logo_GMW">
</g>
</svg>
