<?xml version="1.0" encoding="utf-8"?>
<!-- Generator: Adobe Illustrator 16.0.0, SVG Export Plug-In . SVG Version: 6.00 Build 0)  -->
<!DOCTYPE svg PUBLIC "-//W3C//DTD SVG 1.1//EN" "http://www.w3.org/Graphics/SVG/1.1/DTD/svg11.dtd">
<svg version="1.1" xmlns="http://www.w3.org/2000/svg" xmlns:xlink="http://www.w3.org/1999/xlink" x="0px" y="0px"
	 width="466.152px" height="466.153px" viewBox="0 0 466.152 466.153" enable-background="new 0 0 466.152 466.153"
	 xml:space="preserve">
<g id="pantones">
</g>
<g id="fondo">
</g>
<g id="Bloomberg">
</g>
<g id="Hashtag">
</g>
<g id="recuadro_3">
</g>
<g id="textos_recuadro_3">
</g>
<g id="contador_3">
</g>
<g id="recuadro_2">
	<g>
		<g>
			<path fill="#383838" d="M108.477,202.037c-0.122,0-0.249-0.008-0.372-0.02c-2.032-0.209-3.511-2.018-3.303-4.047
				c6.423-63.242,59.269-110.932,122.921-110.932c52.619,0,99.549,33.385,116.775,83.066c0.669,1.926-0.352,4.025-2.279,4.699
				c-1.919,0.664-4.031-0.355-4.696-2.279c-16.197-46.717-60.324-78.102-109.8-78.102c-59.852,0-109.535,44.836-115.574,104.291
				C111.954,200.619,110.352,202.037,108.477,202.037z"/>
		</g>
		<g>
			<path fill="#383838" d="M289.956,195.83c-1.893,0-3.503-1.441-3.677-3.359c-4.813-53.484-29.987-93.814-58.557-93.814
				c-25.453,0-48.717,32.262-56.564,78.449c-0.344,2.018-2.24,3.369-4.26,3.02c-2.013-0.34-3.363-2.242-3.025-4.254
				c8.603-50.604,34.264-84.598,63.85-84.598c32.95,0,60.669,42.279,65.914,100.531c0.182,2.033-1.313,3.832-3.345,4.01
				C290.176,195.826,290.064,195.83,289.956,195.83z"/>
		</g>
		<g>
			<path fill="#383838" d="M227.473,173.252c-2.035,0-3.691-1.656-3.691-3.693V93.25c0-2.041,1.656-3.691,3.691-3.691
				c2.04,0,3.693,1.65,3.693,3.691v76.309C231.166,171.596,229.513,173.252,227.473,173.252z"/>
		</g>
		<g>
			<path fill="#383838" d="M227.612,160.518c-41.418,0-71.061-14.885-84.987-28.813c-1.444-1.441-1.444-3.781,0-5.221
				c1.439-1.441,3.776-1.441,5.221,0c12.294,12.293,40.562,26.648,79.767,26.648c34.211,0,59.559-8.717,77.492-26.648
				c1.44-1.441,3.776-1.441,5.221,0c1.439,1.439,1.439,3.779,0,5.221C290.938,151.09,263.883,160.518,227.612,160.518z"/>
		</g>
		<g>
			<path fill="#383838" d="M133.842,353.389c-0.101,0-0.201-0.004-0.302-0.01c-18.253-1.475-35.451-8.318-49.733-19.789
				c-0.939-0.756-1.452-1.922-1.371-3.119c1.418-21.695,17.179-39.684,38.32-43.748c1.073-0.217,2.187,0.074,3.032,0.766
				c0.851,0.689,1.349,1.727,1.359,2.822l0.112,11.359l14.178-7.15c1.021-0.516,2.225-0.527,3.26-0.029l14.291,6.859l-0.023-2.713
				c-0.105-11.061-0.105-11.061,2.124-12.057c0.656-0.289,1.387-0.383,2.093-0.27c10.907,1.766,20.659,7.816,26.078,16.182
				c1.111,1.711,0.622,3.998-1.09,5.107c-1.714,1.104-3.996,0.621-5.105-1.092c-2.846-4.395-8.594-9.488-16.754-11.922
				c0.029,3.635,0.081,8.74,0.12,12.623c0.015,1.273-0.634,2.469-1.712,3.152c-1.077,0.686-2.429,0.768-3.579,0.215l-17.998-8.645
				l-17.852,9.004c-1.139,0.576-2.491,0.52-3.581-0.143c-1.092-0.662-1.761-1.838-1.775-3.117l-0.124-12.625
				c-17.141,5.252-26.25,20.508-27.831,33.994c12.811,9.814,28.036,15.672,44.156,16.971c2.032,0.166,3.546,1.947,3.384,3.982
				C137.363,351.926,135.745,353.389,133.842,353.389z"/>
		</g>
		<g>
			<path fill="#383838" d="M111.781,345.559c-2.021,0-3.671-1.625-3.693-3.648l-0.174-14.77c-0.023-2.039,1.609-3.711,3.651-3.734
				c2.003,0.063,3.71,1.607,3.733,3.646l0.174,14.768c0.022,2.039-1.61,3.713-3.649,3.738
				C111.812,345.559,111.796,345.559,111.781,345.559z"/>
		</g>
		<g>
			<path fill="#383838" d="M101.896,300.078c-1.32,0-2.595-0.707-3.258-1.951c-6.204-11.586-9.865-23.803-10.896-36.314
				c-0.383-4.709-2.981-46.553,23.922-66.654c10.962-8.188,22.8-8.922,23.298-8.949c2.105-0.188,4.37-0.213,6.607-0.059
				c0.375,0.008,12.229,0.504,23.351,8.467c1.657,1.189,2.036,3.498,0.851,5.156c-1.186,1.656-3.492,2.039-5.152,0.854
				c-9.323-6.688-19.326-7.098-19.424-7.104c-1.98-0.131-3.857-0.111-5.704,0.051c-0.216,0.016-10.3,0.691-19.403,7.492
				c-23.726,17.73-21.336,55.852-20.983,60.139c0.945,11.498,4.326,22.754,10.046,33.439c0.962,1.801,0.282,4.037-1.515,4.998
				C103.08,299.939,102.484,300.078,101.896,300.078z"/>
		</g>
		<g>
			<path fill="#383838" d="M139.195,286.225c-11.468-0.324-22.367-9.404-28.129-18.252c-6.188-9.514-6.455-19.139-6.543-22.301
				c-0.371-13.031,4.897-22.98,8.071-27.746c0.792-1.189,2.202-1.822,3.604-1.605c1.41,0.199,2.576,1.195,2.998,2.555
				c0.046,0.143,0.124,0.303,0.216,0.486c2.487,4.99,7.828,8.184,13.652,8.184c0.07,0,0.144,0,0.213,0l10.856-0.141
				c5.619-0.08,10.722-3.109,13.306-7.918c0.383-0.707,0.468-0.998,0.472-1.008c0.397-1.363,1.545-2.379,2.951-2.611
				c1.397-0.221,2.811,0.367,3.626,1.537c3.271,4.699,8.74,14.533,8.628,27.582c-0.023,3.16-0.096,12.785-6.09,22.422
				c-5.585,8.963-16.3,18.256-27.649,18.813C139.314,286.221,139.257,286.225,139.195,286.225z M115.832,227.18
				c-2.144,4.523-4.141,10.811-3.924,18.287c0.081,2.932,0.294,10.711,5.35,18.477c4.53,6.965,13.301,14.568,21.901,14.893
				c8.586-0.498,17.203-8.281,21.599-15.332c4.893-7.867,4.951-15.646,4.975-18.574c0.062-7.5-2.063-13.754-4.303-18.232
				c-4.175,4.984-10.439,7.998-17.199,8.09l-10.856,0.143C126.596,234.93,120.111,232.088,115.832,227.18z"/>
		</g>
		<g>
			<path fill="#383838" d="M225.891,298.074c-18.026,0-33.614-16.682-37.074-39.656c-0.302-2.018,1.086-3.898,3.102-4.203
				c2.015-0.326,3.896,1.086,4.202,3.102c2.912,19.338,15.429,33.369,29.771,33.369c14.336,0,26.854-14.031,29.766-33.369
				c0.304-2.016,2.175-3.428,4.201-3.102c2.013,0.305,3.402,2.186,3.103,4.203C259.499,281.393,243.91,298.074,225.891,298.074z"/>
		</g>
		<g>
			<path fill="#383838" d="M259.441,261.561c-0.236,0-0.476-0.023-0.715-0.07c-2.002-0.389-3.307-2.328-2.916-4.332
				c0.51-2.596,2.209-3.793,3.336-4.586c1.078-0.756,1.929-1.355,2.576-4.035c0.715-2.984,0.568-4.67,0.353-5.387
				c-1.642,0.934-3.82,0.52-4.921-1.055c-1.17-1.668-0.842-3.936,0.83-5.107c2.557-1.787,5.759-1.879,8.172-0.238
				c2.349,1.604,4.735,5.246,2.742,13.514c-1.294,5.391-3.927,7.246-5.503,8.352c-0.146,0.1-0.289,0.191-0.417,0.287
				C262.515,260.488,261.059,261.561,259.441,261.561z"/>
		</g>
		<g>
			<path fill="#383838" d="M192.714,284.699c-5.526-0.131-10.293-3.639-12.035-8.732c-0.66-1.932,0.366-4.029,2.295-4.689
				c1.934-0.664,4.031,0.367,4.688,2.295c0.748,2.186,2.776,3.688,5.047,3.738c2.125-0.055,3.055-0.863,3.716-1.73
				c1.237-1.621,3.554-1.928,5.175-0.695c1.623,1.236,1.932,3.553,0.695,5.176C200.021,283.039,196.796,284.6,192.714,284.699z"/>
		</g>
		<g>
			<path fill="#383838" d="M259.816,284.699c-3.558-0.084-6.721-1.461-9.086-3.877c-1.425-1.461-1.401-3.797,0.059-5.223
				c1.456-1.426,3.793-1.406,5.219,0.059c1.012,1.031,2.363,1.621,3.809,1.652c2.093-0.051,4.124-1.553,4.869-3.738
				c0.455-1.324,1.619-2.279,3.009-2.465c2.727-0.359,4.785-2.691,4.785-5.418c0-0.789-0.193-1.588-0.575-2.383
				c-0.528-1.105-0.48-2.402,0.143-3.465c0.614-1.059,1.723-1.742,2.946-1.818c2.889-0.189,5.153-2.592,5.153-5.473
				c0-1.83-0.92-3.539-2.456-4.574c-1.299-0.869-1.905-2.463-1.519-3.973c0.387-1.516,1.679-2.623,3.236-2.766
				c2.851-0.268,5.002-2.607,5.002-5.449c0-2.023-1.135-3.883-2.963-4.848c-1.102-0.58-1.835-1.676-1.949-2.916
				c-0.117-1.236,0.397-2.453,1.366-3.23c1.333-1.068,2.098-2.629,2.098-4.277c0-2.971-2.41-5.441-5.376-5.512l-0.379,0.084
				c-1.518,0.162-3.006-0.594-3.712-1.957c-0.71-1.359-0.502-3.021,0.517-4.164c0.649-0.727,1.418-1.947,1.418-3.645
				c0-2.969-2.41-5.443-5.377-5.512c-0.693,0.02-1.563,0.273-2.405,0.76c-1.471,0.842-3.317,0.58-4.492-0.635
				c-1.173-1.207-1.378-3.064-0.494-4.502c0.557-0.9,0.838-1.869,0.838-2.873c0-2.971-2.413-5.447-5.375-5.516
				c-1.487,0.039-2.68,0.826-3.392,1.475c-1.098,1.006-2.688,1.252-4.041,0.631c-1.35-0.623-2.196-1.996-2.146-3.48
				c0.005-0.068,0.013-0.154,0.019-0.238c-0.087-2.896-2.464-5.281-5.371-5.348c-1.726,0.049-3.444,1.07-4.427,2.752
				c-0.854,1.459-2.592,2.154-4.228,1.676c-1.626-0.479-2.72-2.006-2.646-3.701c0.003-0.076,0.015-0.211,0.027-0.33
				c-0.078-2.902-2.461-5.291-5.373-5.361l-0.139,0.016c-0.154,0.006-0.313,0.006-0.467,0l-0.341-0.016
				c-2.707,0.07-5.082,2.453-5.172,5.348c0.017,0.117,0.024,0.229,0.031,0.344c0.069,1.695-1.02,3.223-2.649,3.701
				c-1.617,0.479-3.372-0.213-4.225-1.676c-0.984-1.682-2.704-2.703-4.601-2.752c-2.741,0.066-5.121,2.461-5.197,5.365
				c0.006,0.105,0.015,0.209,0.018,0.287c0.023,1.473-0.829,2.822-2.178,3.43c-1.344,0.605-2.919,0.352-4.009-0.646
				c-0.71-0.648-1.903-1.436-3.567-1.475c-2.786,0.068-5.199,2.545-5.199,5.516c0,1.004,0.281,1.973,0.834,2.873
				c0.889,1.438,0.685,3.295-0.49,4.502c-1.178,1.219-3.028,1.475-4.492,0.635c-0.865-0.494-2.542-1.004-3.388-1.023
				c-0.713,0.023-1.885,0.734-4.392,5.75c-1.225,2.443,1.066,7.313,2.368,9.287c1.123,1.699,0.656,3.988-1.038,5.113
				c-1.696,1.119-3.983,0.668-5.11-1.029c-0.653-0.977-6.28-9.77-2.824-16.676c2.445-4.898,5.315-9.688,10.999-9.83
				c0.052,0.004,0.102,0.004,0.155,0.004c0.205-6.766,5.771-12.336,12.577-12.504c1.228,0.029,2.412,0.223,3.54,0.555
				c2.013-4.326,6.361-7.398,11.394-7.518c2.102,0.049,4.075,0.566,5.816,1.475c2.197-3.752,6.227-6.324,10.826-6.439l0.518,0.02
				l0.374-0.016c4.732,0.111,8.803,2.684,11.017,6.422c1.717-0.904,3.641-1.412,5.653-1.461c5.155,0.119,9.54,3.188,11.563,7.51
				c1.09-0.332,2.224-0.518,3.372-0.547c7.083,0.168,12.714,5.908,12.76,12.809c6.721,0.576,11.932,6.18,11.932,12.852
				c0,1.127-0.151,2.238-0.444,3.316c4.704,1.975,7.975,6.586,7.975,11.877c0,2.383-0.66,4.674-1.877,6.662
				c2.109,2.328,3.325,5.373,3.325,8.609c0,4.479-2.264,8.426-5.766,10.732c0.973,1.83,1.502,3.893,1.502,6.029
				c0,5.229-3.171,9.789-7.739,11.791c0.049,0.447,0.073,0.896,0.073,1.348c0,5.682-3.773,10.625-9.068,12.273
				C268.614,281.959,264.431,284.588,259.816,284.699z"/>
		</g>
		<g>
			<path fill="#383838" d="M259.355,243.752c-0.749,0-1.506-0.227-2.159-0.699c-1.783-1.295-3.209-2.881-4.229-4.719
				c-1.999-3.605-2.012-7.334-1.455-10.297c-1.363-0.229-2.831-0.676-4.307-1.463c-2.218-1.176-3.809-2.762-4.951-4.412
				c-1.534,1.248-3.371,2.133-5.381,2.52c-4.04,0.771-8.105-0.572-10.941-3.373c-2.406,1.248-5.905,2.342-10.025,1.482
				c-1.353-0.281-2.554-0.725-3.608-1.262c-0.938,2.096-2.443,4.166-4.776,5.693c-1.646,1.076-3.329,1.645-4.852,1.922
				c0.051,2.125-0.298,4.674-1.588,7.281c-1.765,3.568-4.46,5.631-6.413,6.732c-1.773,1-4.03,0.373-5.03-1.402
				c-1.004-1.773-0.375-4.029,1.398-5.029c1.051-0.59,2.495-1.691,3.426-3.572c1.398-2.836,0.648-5.658,0.387-6.463
				c-0.406-1.227-0.136-2.578,0.71-3.564c0.846-0.977,2.141-1.451,3.417-1.227c0.762,0.135,2.724,0.305,4.501-0.854
				c2.904-1.904,2.785-5.941,2.785-5.98c-0.063-1.609,0.922-3.092,2.437-3.637c1.514-0.545,3.209-0.066,4.182,1.213
				c0.541,0.705,2.063,2.406,4.536,2.92c3.698,0.779,6.596-1.723,6.916-2.014c0.86-0.775,2.031-1.107,3.174-0.885
				c1.141,0.223,2.109,0.963,2.62,2.006c0.995,2.031,3.193,3.17,5.356,2.754c2.013-0.383,3.584-2.043,3.917-4.129
				c0.292-1.854,2.026-3.188,3.801-3.117c1.872,0.08,3.39,1.553,3.525,3.426c0.016,0.182,0.389,4.561,3.942,6.449
				c2.12,1.129,4.318,0.801,5.168,0.6c1.398-0.32,2.873,0.201,3.755,1.348c0.884,1.145,1.016,2.701,0.34,3.975
				c-0.268,0.51-2.562,5.074-0.503,8.777c0.487,0.887,1.193,1.662,2.093,2.314c1.654,1.193,2.024,3.508,0.831,5.156
				C261.631,243.219,260.503,243.752,259.355,243.752z"/>
		</g>
		<g>
			<path fill="#383838" d="M183.167,370.174c-2.04,0-3.693-1.654-3.693-3.691v-22.154c0-2.039,1.653-3.691,3.693-3.691
				c2.039,0,3.69,1.652,3.69,3.691v22.154C186.857,368.52,185.206,370.174,183.167,370.174z"/>
		</g>
		<g>
			<path fill="#383838" d="M271.784,367.715c-2.039,0-3.692-1.656-3.692-3.695v-19.691c0-2.039,1.653-3.691,3.692-3.691
				c2.035,0,3.692,1.652,3.692,3.691v19.691C275.477,366.059,273.819,367.715,271.784,367.715z"/>
		</g>
		<g>
			<path fill="#383838" d="M192.509,261.561c-1.623,0-3.078-1.07-3.542-2.652c-0.128-0.102-0.271-0.193-0.416-0.293
				c-1.577-1.105-4.21-2.961-5.509-8.352c-1.988-8.268,0.398-11.91,2.75-13.514c2.411-1.641,5.615-1.549,8.168,0.238
				c1.67,1.172,2.079,3.475,0.908,5.146c-1.135,1.617-3.337,2.051-4.998,1.004c-0.212,0.705-0.37,2.395,0.352,5.398
				c0.646,2.68,1.495,3.279,2.576,4.035c1.124,0.793,2.827,1.99,3.337,4.586c0.394,2-0.911,3.939-2.911,4.332
				C192.982,261.537,192.744,261.561,192.509,261.561z"/>
		</g>
		<g>
			<path fill="#383838" d="M225.661,379.115c-8.253,0-17.183-0.721-26.771-2.387c-2.009-0.348-3.356-2.26-3.006-4.268
				c0.348-2.014,2.255-3.381,4.269-3.006c54.854,9.527,87.088-14.379,94.052-20.268c-7.072-33.262-30.218-42.705-38.622-45.072
				c-3.516,9.061-12.969,21.902-30.677,21.902c-15.858,0-24.588-13.564-27.886-23.035c-21.184,5.127-36.811,23.041-38.92,44.875
				c2.758,2.646,11.058,9.818,25.955,16.203c1.873,0.803,2.742,2.973,1.938,4.846c-0.803,1.875-2.978,2.744-4.85,1.939
				c-20.277-8.691-29.258-18.744-29.632-19.168c-0.645-0.734-0.973-1.699-0.912-2.676c1.77-27.074,21.652-49.264,48.355-53.967
				c1.929-0.342,3.786,0.887,4.237,2.791c0.2,0.846,5.175,20.807,21.714,20.807c19.329,0,24.421-18.973,24.625-19.779
				c0.476-1.838,2.251-3.016,4.14-2.742c0.395,0.059,39.356,6.582,48.196,53.74c0.225,1.197-0.153,2.428-1.019,3.289
				C299.619,354.369,274.221,379.115,225.661,379.115z"/>
		</g>
		<g>
			<path fill="#383838" d="M356.432,283.387c-0.544,0-1.096-0.121-1.618-0.375c-1.83-0.893-2.591-3.102-1.698-4.936
				c2.12-4.361,5.43-13.691,3.733-27.248c-1.258-10.072-10.697-21.699-15.135-23.918c-4.858-2.43-9.919-2.43-15.271-2.43
				c-3.446,0-6.335-1.217-9.394-2.504c-3.664-1.541-7.461-3.141-13.173-3.141c-1.614,0-3.524,0.658-5.666,1.955
				c-1.75,1.051-4.019,0.496-5.071-1.248c-1.056-1.744-0.498-4.016,1.246-5.074c3.318-2.002,6.509-3.018,9.491-3.018
				c7.202,0,12.1,2.063,16.036,3.721c2.556,1.074,4.575,1.924,6.53,1.924c5.975,0,12.149,0,18.574,3.209
				c6.569,3.285,17.557,16.773,19.163,29.607c1.932,15.449-1.945,26.303-4.426,31.396
				C359.112,282.621,357.8,283.387,356.432,283.387z"/>
		</g>
		<g>
			<path fill="#383838" d="M350.129,220.316c-1.645,0-3.144-1.105-3.572-2.766c-2.877-11.107-11.143-29.738-34.219-29.738
				c-11.232,0-17.816,6.842-21.362,12.584c-1.074,1.736-3.352,2.266-5.082,1.199c-1.735-1.074-2.274-3.348-1.202-5.082
				c6.407-10.371,16.226-16.086,27.646-16.086c20.488,0,35.566,12.857,41.368,35.273c0.51,1.975-0.677,3.986-2.65,4.5
				C350.746,220.279,350.435,220.316,350.129,220.316z"/>
		</g>
		<g>
			<path fill="#383838" d="M313.353,206.08c-9.743,0-18.434-1.375-26.688-4.125c-1.935-0.641-2.977-2.732-2.332-4.668
				c0.643-1.936,2.735-2.99,4.67-2.338c14.448,4.816,30.631,4.975,52.469,0.502c2.004-0.4,3.95,0.881,4.359,2.881
				c0.41,1.996-0.881,3.947-2.876,4.357C331.918,204.943,322.201,206.08,313.353,206.08z"/>
		</g>
		<g>
			<path fill="#383838" d="M314.161,288.207c-7.841,0-16.867-1.619-21.251-6.354c-2.44-2.639-4.445-7.471-6.496-15.662
				c-0.498-1.975,0.707-3.982,2.684-4.477c1.982-0.498,3.982,0.707,4.48,2.684c1.661,6.645,3.265,10.826,4.756,12.438
				c2.251,2.438,9.891,4.615,19.615,3.84c7.813-0.619,13.992-2.998,16.129-6.203c4.298-6.443,10.436-33.234,12.436-43.014
				c0.405-1.998,2.355-3.287,4.357-2.877c1.996,0.408,3.286,2.359,2.877,4.355c-0.769,3.748-7.65,36.826-13.525,45.633
				c-4.916,7.379-16.805,9.078-21.69,9.465C317.149,288.148,315.679,288.207,314.161,288.207z"/>
		</g>
		<g>
			<path fill="#383838" d="M300.813,261.852c-0.391,0-0.785-0.066-1.17-0.195l-7.787-2.594c-1.934-0.645-2.977-2.734-2.332-4.67
				c0.641-1.934,2.734-2.986,4.668-2.336l5.752,1.92c2.434-1.918,7.121-4.705,13.847-4.705c7.87,0,13.228,2.688,15.992,4.549
				l13.507-6.756c1.827-0.906,4.044-0.168,4.955,1.654c0.912,1.824,0.17,4.043-1.653,4.955l-15.571,7.785
				c-1.422,0.703-3.14,0.436-4.265-0.693c-0.151-0.139-4.402-4.109-12.965-4.109c-6.597,0-10.158,3.885-10.192,3.924
				C302.882,261.398,301.862,261.852,300.813,261.852z"/>
		</g>
		<g>
			<path fill="#383838" d="M268.787,296.244c-1.24,0-2.452-0.627-3.151-1.762c-1.062-1.738-0.519-4.014,1.221-5.08
				c6.55-4.016,12.722-7.48,16.11-9.045c1.838-0.861,4.043-0.053,4.896,1.805c0.857,1.85,0.047,4.043-1.803,4.896
				c-3.141,1.453-9.019,4.762-15.345,8.641C270.112,296.07,269.448,296.244,268.787,296.244z"/>
		</g>
		<g>
			<path fill="#383838" d="M314.875,351.844c-2.028,0-3.678-1.635-3.693-3.66c-0.014-2.041,1.627-3.705,3.665-3.725
				c32.536-0.254,54.034-5.697,61.248-7.832l-0.757-8.57c-1.646-18.693-14.286-34.389-32.199-39.986
				c-1.946-0.605-3.032-2.676-2.421-4.623c0.605-1.941,2.66-3.035,4.622-2.424c20.783,6.49,35.444,24.697,37.355,46.385
				l1.016,11.518c0.147,1.664-0.847,3.221-2.418,3.797c-0.988,0.354-24.664,8.793-66.392,9.121
				C314.895,351.844,314.886,351.844,314.875,351.844z"/>
		</g>
		<g>
			<path fill="#383838" d="M318.659,302.783c-2.274,0-4.12,1.844-4.12,4.119c0,2.279,1.846,4.121,4.12,4.121
				c2.278,0,4.126-1.842,4.126-4.121C322.785,304.627,320.938,302.783,318.659,302.783z"/>
		</g>
		<g>
			<path fill="#383838" d="M318.659,316.52c-2.274,0-4.12,1.848-4.12,4.121c0,2.275,1.846,4.121,4.12,4.121
				c2.278,0,4.126-1.846,4.126-4.121C322.785,318.367,320.938,316.52,318.659,316.52z"/>
		</g>
	</g>
</g>
<g id="textos_recuadro_2">
</g>
<g id="contador_2">
</g>
<g id="recuadro_1">
	<g id="Capa_29">
	</g>
	<g id="Capa_28">
	</g>
	<g id="Capa_27">
	</g>
	<g id="Capa_26">
		<g id="Capa_30">
			<g id="Capa_44">
			</g>
			<g id="Capa_43">
			</g>
			<g id="Capa_42">
			</g>
			<g id="Capa_41">
			</g>
			<g id="Capa_40">
			</g>
			<g id="Capa_39">
			</g>
			<g id="Capa_38">
			</g>
			<g id="Capa_37">
			</g>
			<g id="Capa_36">
			</g>
			<g id="Capa_35">
			</g>
			<g id="Capa_34">
			</g>
			<g id="Capa_33">
			</g>
			<g id="Capa_32">
			</g>
			<g id="Capa_31">
			</g>
		</g>
	</g>
</g>
<g id="textos_recuadro_1">
</g>
<g id="contador_1">
</g>
<g id="Textos">
</g>
<g id="highlight">
</g>
<g id="barra_menu">
</g>
<g id="Logo_MIDE">
</g>
<g id="Contacto">
</g>
<g id="Logros">
</g>
<g id="Aliados">
</g>
<g id="Recursos">
</g>
<g id="Cartelera">
</g>
<g id="presentación">
</g>
<g id="Home">
</g>
<g id="logo_GMW">
</g>
</svg>
