<?xml version="1.0" encoding="utf-8"?>
<!-- Generator: Adobe Illustrator 16.0.0, SVG Export Plug-In . SVG Version: 6.00 Build 0)  -->
<!DOCTYPE svg PUBLIC "-//W3C//DTD SVG 1.1//EN" "http://www.w3.org/Graphics/SVG/1.1/DTD/svg11.dtd">
<svg version="1.1" xmlns="http://www.w3.org/2000/svg" xmlns:xlink="http://www.w3.org/1999/xlink" x="0px" y="0px"
	 width="466.152px" height="466.153px" viewBox="0 0 466.152 466.153" enable-background="new 0 0 466.152 466.153"
	 xml:space="preserve">
<g id="pantones">
</g>
<g id="fondo">
</g>
<g id="Bloomberg">
</g>
<g id="Hashtag">
</g>
<g id="recuadro_3">
	<path id="NewGroupe2_1_" fill="#383838" d="M233.068,183.328c-0.736,0-1.459-0.184-2.107-0.531l-66.467-35.777
		c-2.168-1.17-2.977-3.873-1.807-6.039c1.168-2.168,3.869-2.98,6.037-1.809l66.434,35.781c2.17,1.162,2.982,3.861,1.816,6.029
		C236.201,182.416,234.705,183.322,233.068,183.328L233.068,183.328L233.068,183.328z M233.068,183.328L233.068,183.328
		c0.738-0.006,1.465-0.186,2.113-0.535l66.637-36.049c2.158-1.17,2.965-3.869,1.795-6.035s-3.873-2.967-6.035-1.797l-66.629,36.041
		c-1.445,0.781-2.344,2.291-2.34,3.93C228.613,181.34,230.613,183.332,233.068,183.328L233.068,183.328z M166.277,363.996
		L166.277,363.996c0,0,0.004,0,0.008,0c2.455,0,4.451-1.996,4.451-4.451v-72.268c0.004-1.635-0.895-3.141-2.332-3.918
		l-66.473-35.963l0,0c-2.162-1.17-4.863-0.359-6.035,1.801c-1.168,2.166-0.363,4.869,1.803,6.039l64.121,34.697v69.611
		C161.82,362,163.816,363.996,166.277,363.996L166.277,363.996z M103.932,320.762v-66.971l64.461-34.873
		c1.441-0.775,2.336-2.281,2.336-3.916v-69.609l62.34-33.73l62.338,33.73v69.617c0,1.639,0.895,3.141,2.332,3.922l64.473,34.859
		v66.971l-62.346,33.727l-64.662-34.992c-1.32-0.717-2.916-0.717-4.238,0l-64.688,34.992L103.932,320.762L103.932,320.762z
		 M299.865,363.996L299.865,363.996c0.746,0.004,1.475-0.178,2.129-0.531l66.797-36.131c1.438-0.781,2.332-2.281,2.332-3.918
		v-72.271c0-1.641-0.895-3.141-2.332-3.922l-64.473-34.865v-69.621c0.004-1.635-0.895-3.141-2.332-3.918l-66.797-36.133
		c-1.324-0.713-2.918-0.713-4.236,0l-66.797,36.133c-1.438,0.777-2.336,2.283-2.336,3.918v69.613l-64.463,34.873
		c-1.436,0.781-2.328,2.281-2.328,3.922v72.271c-0.006,1.633,0.889,3.137,2.326,3.918l66.797,36.131
		c1.324,0.717,2.918,0.717,4.236,0l64.68-34.984l64.676,34.98C298.396,363.814,299.125,363.996,299.865,363.996L299.865,363.996z
		 M299.865,362.773c2.461,0,4.453-1.996,4.453-4.457v-71.039c0-2.459-1.992-4.451-4.453-4.451c-2.459,0-4.451,1.992-4.451,4.451
		v71.039C295.414,360.777,297.406,362.773,299.865,362.773L299.865,362.773z M299.865,291.73L299.865,291.73
		c0.742,0,1.475-0.182,2.125-0.535l66.453-35.941c2.162-1.18,2.959-3.891,1.781-6.053c-1.182-2.164-3.891-2.963-6.051-1.779
		l-66.432,35.938c-1.441,0.777-2.34,2.287-2.336,3.928C295.41,289.746,297.406,291.738,299.865,291.73L299.865,291.73z
		 M233.068,255.605c0.742,0,1.471-0.188,2.121-0.539l66.797-36.135c2.162-1.174,2.973-3.877,1.797-6.039
		c-1.168-2.166-3.873-2.971-6.039-1.801l-64.676,34.996l-64.676-34.996c-2.16-1.17-4.865-0.365-6.037,1.801
		c-1.17,2.162-0.365,4.865,1.801,6.039l66.797,36.135C231.6,255.418,232.328,255.605,233.068,255.605L233.068,255.605z
		 M233.068,255.605c2.461,0,4.457-1.996,4.457-4.453v-72.281c0-2.457-1.996-4.453-4.457-4.453c-2.455,0-4.451,1.996-4.451,4.453
		v72.281C228.617,253.609,230.613,255.605,233.068,255.605L233.068,255.605z M233.068,327.869c2.461,0,4.457-1.996,4.457-4.453
		v-72.271c0-2.461-1.996-4.455-4.457-4.455c-2.455,0-4.451,1.994-4.451,4.455v72.271
		C228.617,325.873,230.613,327.869,233.068,327.869L233.068,327.869z M166.277,291.73L166.277,291.73
		c0.736,0,1.465-0.186,2.111-0.535l66.797-36.135c2.166-1.168,2.971-3.871,1.801-6.037c-1.172-2.166-3.877-2.971-6.037-1.801
		l-66.797,36.137c-1.445,0.777-2.346,2.287-2.34,3.928C161.82,289.746,163.816,291.738,166.277,291.73L166.277,291.73z
		 M299.865,291.73L299.865,291.73c1.641,0.004,3.15-0.895,3.928-2.334c1.168-2.166,0.363-4.867-1.803-6.037l-66.795-36.137
		c-2.166-1.17-4.865-0.365-6.039,1.801c-1.17,2.166-0.365,4.869,1.801,6.037l66.797,36.135
		C298.4,291.545,299.129,291.73,299.865,291.73L299.865,291.73z"/>
</g>
<g id="textos_recuadro_3">
</g>
<g id="contador_3">
</g>
<g id="recuadro_2">
</g>
<g id="textos_recuadro_2">
</g>
<g id="contador_2">
</g>
<g id="recuadro_1">
	<g id="Capa_29">
	</g>
	<g id="Capa_28">
	</g>
	<g id="Capa_27">
	</g>
	<g id="Capa_26">
		<g id="Capa_30">
			<g id="Capa_44">
			</g>
			<g id="Capa_43">
			</g>
			<g id="Capa_42">
			</g>
			<g id="Capa_41">
			</g>
			<g id="Capa_40">
			</g>
			<g id="Capa_39">
			</g>
			<g id="Capa_38">
			</g>
			<g id="Capa_37">
			</g>
			<g id="Capa_36">
			</g>
			<g id="Capa_35">
			</g>
			<g id="Capa_34">
			</g>
			<g id="Capa_33">
			</g>
			<g id="Capa_32">
			</g>
			<g id="Capa_31">
			</g>
		</g>
	</g>
</g>
<g id="textos_recuadro_1">
</g>
<g id="contador_1">
</g>
<g id="Textos">
</g>
<g id="highlight">
</g>
<g id="barra_menu">
</g>
<g id="Logo_MIDE">
</g>
<g id="Contacto">
</g>
<g id="Logros">
</g>
<g id="Aliados">
</g>
<g id="Recursos">
</g>
<g id="Cartelera">
</g>
<g id="presentación">
</g>
<g id="Home">
</g>
<g id="logo_GMW">
</g>
</svg>
