<?xml version="1.0" encoding="utf-8"?>
<!-- Generator: Adobe Illustrator 16.0.0, SVG Export Plug-In . SVG Version: 6.00 Build 0)  -->
<!DOCTYPE svg PUBLIC "-//W3C//DTD SVG 1.1//EN" "http://www.w3.org/Graphics/SVG/1.1/DTD/svg11.dtd">
<svg version="1.1" xmlns="http://www.w3.org/2000/svg" xmlns:xlink="http://www.w3.org/1999/xlink" x="0px" y="0px"
	 width="688.743px" height="312.69px" viewBox="0 0 688.743 312.69" enable-background="new 0 0 688.743 312.69"
	 xml:space="preserve">
<g id="pantones">
</g>
<g id="fondo">
</g>
<g id="Bloomberg">
</g>
<g id="hashtag">
</g>
<g id="textos">
</g>
<g id="highlight">
</g>
<g id="barras_menu">
</g>
<g id="Logo_MIDE">
	<g>
		<g>
			<path fill="#77BC1F" d="M269.832,20.452c0,11.261-9.119,20.39-20.384,20.39c-11.253,0-20.379-9.128-20.379-20.39
				c0-11.256,9.126-20.375,20.379-20.375C260.713,0.076,269.832,9.196,269.832,20.452"/>
			<path fill="#77BC1F" d="M656.372,137.929c0,55.039-44.62,99.662-99.67,99.662c-55.04,0-99.66-44.623-99.66-99.662
				c0-55.036,44.62-99.66,99.66-99.66C611.752,38.269,656.372,82.893,656.372,137.929"/>
			<path fill="#FFFFFF" d="M592.628,146.262h-65.201c0.072,7.595,1.612,14.263,4.574,20.049c2.979,5.78,6.937,10.136,11.847,13.075
				c4.938,2.919,10.352,4.392,16.298,4.392c3.997,0,7.625-0.465,10.933-1.402c3.304-0.935,6.495-2.405,9.574-4.401
				c3.107-1.993,5.962-4.14,8.555-6.416c2.597-2.278,6.001-5.372,10.149-9.286c1.702-1.463,4.155-2.203,7.323-2.203
				c3.416,0,6.187,0.943,8.308,2.819c2.1,1.867,3.17,4.521,3.17,7.936c0,3.023-1.193,6.55-3.545,10.595
				c-2.367,4.023-5.923,7.88-10.682,11.598c-4.764,3.721-10.749,6.791-17.96,9.227c-7.193,2.444-15.479,3.675-24.841,3.675
				c-21.414,0-38.059-6.111-49.978-18.335c-11.897-12.225-17.849-28.813-17.849-49.763c0-9.875,1.456-19.018,4.4-27.452
				c2.934-8.443,7.211-15.673,12.843-21.722C516.168,82.624,523.11,78,531.33,74.771c8.218-3.219,17.337-4.826,27.359-4.826
				c13.022,0,24.196,2.76,33.518,8.264c9.316,5.498,16.298,12.611,20.929,21.345c4.652,8.722,6.976,17.607,6.976,26.657
				c0,8.403-2.396,13.834-7.217,16.328C608.096,145.025,601.334,146.262,592.628,146.262 M527.427,127.255h60.436
				c-0.812-11.418-3.873-19.956-9.209-25.622c-5.336-5.668-12.35-8.501-21.057-8.501c-8.318,0-15.126,2.877-20.468,8.619
				C531.794,107.512,528.563,116.005,527.427,127.255"/>
			<path fill="#55565A" d="M125.961,141.092v52.066c0,8.227-1.769,14.408-5.302,18.512c-3.538,4.112-8.207,6.172-14.013,6.172
				c-5.604,0-10.162-2.06-13.644-6.172c-3.494-4.104-5.24-10.285-5.24-18.512v-62.396c0-9.853-0.313-17.504-0.951-22.945
				c-0.639-5.458-2.386-9.932-5.218-13.414c-2.828-3.491-7.295-5.249-13.403-5.249c-12.233,0-20.29,4.417-24.175,13.204
				c-3.88,8.801-5.823,21.42-5.823,37.865v52.935c0,8.131-1.74,14.296-5.234,18.456c-3.487,4.146-8.084,6.228-13.8,6.228
				c-5.609,0-10.211-2.083-13.789-6.228C1.78,207.454,0,201.29,0,193.169V81.129c0-7.351,1.612-12.95,4.814-16.776
				c3.225-3.829,7.458-5.75,12.731-5.75c5.061,0,9.294,1.803,12.692,5.397c3.398,3.577,5.106,8.524,5.106,14.842v3.729
				c6.449-8.132,13.374-14.108,20.731-17.935c7.385-3.823,15.564-5.739,24.578-5.739c9.383,0,17.427,1.962,24.163,5.876
				c6.74,3.927,12.288,9.853,16.66,17.798c6.304-8.034,13.046-13.988,20.256-17.868c7.211-3.863,15.195-5.806,23.962-5.806
				c10.212,0,19.013,2.105,26.413,6.318c7.391,4.207,12.917,10.223,16.562,18.075c3.175,7.071,4.765,18.209,4.765,33.412v76.468
				c0,8.216-1.77,14.396-5.297,18.5c-3.544,4.112-8.213,6.172-14.019,6.172c-5.621,0-10.217-2.083-13.807-6.228
				c-3.571-4.16-5.369-10.324-5.369-18.456v-65.831c0-8.428-0.336-15.161-1.023-20.238c-0.694-5.062-2.547-9.319-5.577-12.753
				c-3.022-3.444-7.625-5.182-13.766-5.182c-4.95,0-9.652,1.539-14.109,4.596c-4.434,3.063-7.904,7.174-10.379,12.328
				C127.333,112.688,125.961,124.364,125.961,141.092"/>
			<path fill="#55565A" d="M402.3,195.484v-3.869c-5.252,6.024-10.436,10.928-15.553,14.699c-5.105,3.791-10.643,6.651-16.611,8.608
				c-5.974,1.957-12.484,2.931-19.549,2.931c-9.356,0-18.017-1.991-25.979-5.94c-8-3.972-14.892-9.646-20.715-16.998
				c-5.827-7.362-10.238-16.032-13.234-25.966c-3.028-9.96-4.513-20.706-4.513-32.284c0-24.468,5.951-43.557,17.898-57.234
				c11.932-13.674,27.646-20.519,47.112-20.519c11.27,0,20.765,1.948,28.507,5.823c7.732,3.885,15.279,9.851,22.636,17.904V24.357
				c0-8.018,1.596-14.081,4.792-18.184C410.289,2.063,414.852,0,420.786,0c5.934,0,10.498,1.893,13.677,5.674
				c3.214,3.771,4.821,9.341,4.821,16.706v173.121c0,7.448-1.731,13.047-5.174,16.779c-3.438,3.72-7.872,5.573-13.324,5.573
				c-5.353,0-9.775-1.923-13.258-5.806C404.047,208.188,402.3,202.656,402.3,195.484 M325.27,137.987
				c0,10.629,1.646,19.657,4.948,27.105c3.287,7.465,7.811,13.069,13.55,16.838c5.737,3.776,12.003,5.666,18.799,5.666
				c6.876,0,13.162-1.789,18.852-5.378c5.693-3.575,10.239-9.08,13.638-16.476c3.376-7.412,5.082-16.65,5.082-27.755
				c0-10.405-1.706-19.371-5.082-26.873c-3.398-7.497-7.984-13.235-13.779-17.213c-5.783-3.963-12.12-5.951-18.995-5.951
				c-7.172,0-13.594,2.038-19.226,6.1c-5.643,4.07-10.021,9.89-13.117,17.504C326.815,119.148,325.27,127.955,325.27,137.987"/>
			<path fill="#77BC1F" d="M654.492,75.714c0-9.47,7.641-17.131,17.125-17.131c9.479,0,17.126,7.661,17.126,17.131
				c0,9.479-7.647,17.146-17.126,17.146C662.133,92.86,654.492,85.193,654.492,75.714 M684.863,75.714
				c0-7.482-6.058-13.54-13.246-13.54c-7.199,0-13.258,6.058-13.258,13.54c0,7.48,6.059,13.546,13.258,13.546
				C678.806,89.26,684.863,83.194,684.863,75.714 M667.692,77.38v6.78c0,0.927-0.52,1.514-1.578,1.514
				c-1.003,0-1.563-0.587-1.563-1.514V67.152c0-0.716,0.353-0.988,1.081-0.988h6.265c4.736,0,7.16,1.358,7.16,5.624
				c0,3.698-2.194,5.103-4.877,5.439l4.217,6.441c0.174,0.291,0.487,0.856,0.487,1.184c0,0.518-0.952,0.823-1.781,0.823
				c-0.929,0-1.421-0.305-1.903-1.055l-4.495-7.239H667.692z M671.292,74.517c2.407,0,4.637-0.157,4.637-2.964
				c0-2.371-2.317-2.556-4.361-2.556h-3.875v5.52H671.292z"/>
			<path fill="#55565A" d="M248.631,58.317c0,0-18.453-1.52-18.453,22.52v115.952c0,0,0.645,20.748,20.1,20.748
				c18.749,0,18.441-20.944,18.441-20.944V80.933C268.719,80.933,269.335,59.073,248.631,58.317"/>
		</g>
		<g>
			<g>
				<g>
					<path fill="#5D6267" d="M433.321,273.453c-0.975,0-1.809-0.297-2.497-0.894c-0.694-0.596-1.042-1.438-1.042-2.53
						c0-0.988,0.354-1.8,1.064-2.438s1.534-0.958,2.475-0.958c0.907,0,1.713,0.289,2.413,0.868c0.699,0.58,1.052,1.422,1.052,2.528
						c0,1.075-0.347,1.912-1.029,2.516C435.073,273.15,434.261,273.453,433.321,273.453z M436.786,280.657v20.155
						c0,1.397-0.336,2.452-1.001,3.167c-0.667,0.717-1.513,1.075-2.543,1.075c-1.023,0-1.858-0.367-2.497-1.1
						c-0.644-0.731-0.963-1.781-0.963-3.141v-19.95c0-1.38,0.319-2.418,0.963-3.118c0.639-0.697,1.474-1.047,2.497-1.047
						c1.03,0,1.876,0.35,2.543,1.047C436.45,278.444,436.786,279.412,436.786,280.657z"/>
				</g>
			</g>
			<path fill="#5D6267" d="M33.519,292.585c0,1.193-0.297,2.484-0.884,3.872c-0.595,1.389-1.519,2.749-2.783,4.087
				c-1.266,1.338-2.884,2.422-4.848,3.256c-1.965,0.837-4.26,1.254-6.875,1.254c-1.981,0-3.785-0.188-5.408-0.563
				c-1.624-0.375-3.102-0.957-4.423-1.75c-1.328-0.792-2.548-1.836-3.656-3.129c-0.992-1.175-1.842-2.491-2.542-3.947
				c-0.699-1.456-1.227-3.009-1.574-4.661C0.174,289.35,0,287.597,0,285.741c0-3.015,0.437-5.713,1.322-8.098
				c0.879-2.385,2.138-4.423,3.778-6.119c1.641-1.694,3.567-2.984,5.773-3.869c2.205-0.887,4.557-1.33,7.054-1.33
				c3.04,0,5.75,0.604,8.128,1.814c2.375,1.209,4.194,2.704,5.459,4.485c1.266,1.777,1.898,3.459,1.898,5.044
				c0,0.868-0.308,1.635-0.924,2.298c-0.61,0.663-1.355,0.997-2.229,0.997c-0.974,0-1.708-0.229-2.194-0.689
				c-0.487-0.461-1.03-1.251-1.629-2.376c-0.991-1.856-2.155-3.244-3.5-4.165c-1.338-0.918-2.995-1.377-4.96-1.377
				c-3.129,0-5.621,1.184-7.474,3.55c-1.859,2.368-2.788,5.732-2.788,10.091c0,2.912,0.415,5.336,1.232,7.267
				c0.822,1.934,1.982,3.376,3.487,4.331c1.506,0.955,3.27,1.431,5.285,1.431c2.189,0,4.037-0.541,5.554-1.621
				c1.511-1.083,2.654-2.67,3.421-4.764c0.325-0.988,0.727-1.794,1.208-2.416c0.478-0.621,1.243-0.932,2.308-0.932
				c0.906,0,1.686,0.316,2.329,0.946C33.194,290.867,33.519,291.65,33.519,292.585z"/>
			<path fill="#5D6267" d="M66.085,290.875c0,2.077-0.324,3.992-0.974,5.747c-0.65,1.755-1.59,3.261-2.822,4.521
				c-1.23,1.263-2.698,2.229-4.411,2.9c-1.708,0.671-3.634,1.01-5.767,1.01c-2.122,0-4.031-0.342-5.722-1.022
				c-1.691-0.683-3.157-1.657-4.4-2.925c-1.238-1.271-2.178-2.769-2.816-4.496c-0.644-1.73-0.963-3.642-0.963-5.736
				c0-2.111,0.324-4.045,0.975-5.8c0.649-1.752,1.584-3.253,2.793-4.496c1.215-1.243,2.688-2.2,4.412-2.872
				c1.725-0.675,3.633-1.011,5.722-1.011c2.116,0,4.042,0.342,5.767,1.022c1.73,0.683,3.207,1.651,4.439,2.911
				c1.232,1.263,2.167,2.76,2.805,4.499C65.767,286.864,66.085,288.781,66.085,290.875z M59.059,290.875
				c0-2.844-0.627-5.058-1.887-6.643c-1.253-1.584-2.944-2.373-5.061-2.373c-1.372,0-2.575,0.353-3.617,1.058
				c-1.047,0.708-1.847,1.75-2.413,3.13c-0.565,1.38-0.845,2.99-0.845,4.829c0,1.823,0.279,3.415,0.834,4.775
				c0.554,1.363,1.349,2.408,2.386,3.13c1.035,0.725,2.249,1.086,3.655,1.086c2.116,0,3.808-0.795,5.061-2.388
				C58.432,295.886,59.059,293.686,59.059,290.875z"/>
			<path fill="#5D6267" d="M97.807,290.875c0,2.077-0.325,3.992-0.975,5.747c-0.649,1.755-1.59,3.261-2.821,4.521
				c-1.232,1.263-2.698,2.229-4.412,2.9c-1.708,0.671-3.628,1.01-5.766,1.01c-2.123,0-4.025-0.342-5.723-1.022
				c-1.69-0.683-3.158-1.657-4.395-2.925c-1.237-1.271-2.178-2.769-2.821-4.496c-0.645-1.73-0.963-3.642-0.963-5.736
				c0-2.111,0.324-4.045,0.974-5.8c0.649-1.752,1.584-3.253,2.8-4.496c1.209-1.243,2.682-2.2,4.405-2.872
				c1.73-0.675,3.634-1.011,5.723-1.011c2.116,0,4.042,0.342,5.766,1.022c1.73,0.683,3.208,1.651,4.44,2.911
				c1.23,1.263,2.166,2.76,2.811,4.499C97.487,286.864,97.807,288.781,97.807,290.875z M90.78,290.875
				c0-2.844-0.627-5.058-1.887-6.643c-1.255-1.584-2.944-2.373-5.061-2.373c-1.366,0-2.576,0.353-3.617,1.058
				c-1.041,0.708-1.848,1.75-2.413,3.13c-0.56,1.38-0.845,2.99-0.845,4.829c0,1.823,0.279,3.415,0.834,4.775
				c0.554,1.363,1.349,2.408,2.384,3.13c1.036,0.725,2.257,1.086,3.657,1.086c2.116,0,3.806-0.795,5.061-2.388
				C90.153,295.886,90.78,293.686,90.78,290.875z"/>
			<path fill="#5D6267" d="M110.27,294.987v5.825c0,1.414-0.331,2.475-0.997,3.18c-0.667,0.706-1.512,1.061-2.542,1.061
				c-1.008,0-1.836-0.358-2.485-1.075c-0.649-0.714-0.975-1.769-0.975-3.167v-19.416c0-3.132,1.137-4.7,3.409-4.7
				c1.165,0,2.004,0.367,2.515,1.1c0.515,0.73,0.794,1.813,0.845,3.242c0.84-1.428,1.696-2.511,2.581-3.242
				c0.879-0.733,2.055-1.1,3.526-1.1c1.468,0,2.895,0.367,4.278,1.1c1.389,0.73,2.082,1.702,2.082,2.911
				c0,0.851-0.296,1.554-0.885,2.108c-0.593,0.551-1.23,0.829-1.914,0.829c-0.258,0-0.873-0.157-1.859-0.47
				c-0.985-0.316-1.848-0.473-2.603-0.473c-1.025,0-1.864,0.266-2.514,0.803c-0.649,0.538-1.154,1.333-1.512,2.388
				c-0.358,1.059-0.605,2.312-0.745,3.768C110.342,291.119,110.27,292.894,110.27,294.987z"/>
			<path fill="#5D6267" d="M144.151,301.067v-0.688c-0.941,1.072-1.87,1.946-2.783,2.617c-0.917,0.672-1.908,1.185-2.979,1.534
				c-1.068,0.347-2.233,0.523-3.498,0.523c-1.674,0-3.226-0.355-4.652-1.061c-1.428-0.705-2.666-1.716-3.707-3.028
				c-1.047-1.311-1.836-2.853-2.373-4.622c-0.538-1.772-0.807-3.687-0.807-5.75c0-4.358,1.069-7.757,3.202-10.192
				c2.139-2.436,4.949-3.653,8.438-3.653c2.021,0,3.717,0.347,5.105,1.036c1.383,0.689,2.732,1.75,4.054,3.18v-10.296
				c0-1.43,0.285-2.511,0.856-3.244c0.571-0.731,1.389-1.098,2.447-1.098c1.063,0,1.88,0.336,2.451,1.011
				c0.571,0.672,0.862,1.663,0.862,2.976v30.755c0,1.33-0.313,2.324-0.929,2.99c-0.611,0.663-1.406,0.996-2.385,0.996
				c-0.953,0-1.748-0.347-2.369-1.036C144.459,303.329,144.151,302.343,144.151,301.067z M130.379,290.825
				c0,1.889,0.291,3.499,0.884,4.826c0.589,1.33,1.4,2.329,2.425,3.004c1.024,0.671,2.144,1.007,3.359,1.007
				c1.231,0,2.356-0.319,3.37-0.957c1.019-0.638,1.83-1.618,2.436-2.939c0.609-1.318,0.912-2.967,0.912-4.94
				c0-1.858-0.303-3.455-0.912-4.792c-0.605-1.335-1.428-2.357-2.463-3.065c-1.031-0.706-2.162-1.059-3.394-1.059
				c-1.287,0-2.43,0.361-3.437,1.086c-1.009,0.722-1.792,1.76-2.347,3.116C130.659,287.465,130.379,289.036,130.379,290.825z"/>
			<path fill="#5D6267" d="M161.333,273.453c-0.974,0-1.809-0.297-2.502-0.894c-0.695-0.596-1.036-1.438-1.036-2.53
				c0-0.988,0.353-1.8,1.063-2.438c0.706-0.638,1.533-0.958,2.475-0.958c0.9,0,1.707,0.289,2.408,0.868
				c0.699,0.58,1.052,1.422,1.052,2.528c0,1.075-0.342,1.912-1.025,2.516C163.086,273.15,162.273,273.453,161.333,273.453z
				 M164.793,280.657v20.155c0,1.397-0.33,2.452-1.002,3.167c-0.667,0.717-1.512,1.075-2.536,1.075c-1.025,0-1.858-0.367-2.503-1.1
				c-0.638-0.731-0.957-1.781-0.957-3.141v-19.95c0-1.38,0.319-2.418,0.957-3.118c0.645-0.697,1.478-1.047,2.503-1.047
				c1.024,0,1.869,0.35,2.536,1.047C164.463,278.444,164.793,279.412,164.793,280.657z"/>
			<path fill="#5D6267" d="M178.386,280.554v0.842c1.232-1.618,2.575-2.805,4.037-3.563c1.461-0.759,3.141-1.137,5.038-1.137
				c1.848,0,3.5,0.4,4.95,1.201c1.454,0.801,2.541,1.935,3.258,3.399c0.464,0.85,0.762,1.769,0.896,2.757
				c0.14,0.988,0.207,2.248,0.207,3.782v12.977c0,1.397-0.319,2.452-0.963,3.167c-0.639,0.717-1.472,1.075-2.497,1.075
				c-1.047,0-1.887-0.367-2.541-1.1c-0.65-0.731-0.975-1.781-0.975-3.141V289.19c0-2.301-0.319-4.059-0.963-5.277
				c-0.639-1.217-1.915-1.825-3.829-1.825c-1.249,0-2.385,0.37-3.416,1.111c-1.024,0.739-1.774,1.758-2.256,3.051
				c-0.341,1.039-0.509,2.981-0.509,5.825v8.736c0,1.414-0.331,2.475-0.991,3.18c-0.655,0.706-1.506,1.061-2.547,1.061
				c-1.014,0-1.843-0.367-2.492-1.1c-0.649-0.731-0.974-1.781-0.974-3.141v-20.155c0-1.329,0.29-2.32,0.873-2.975
				c0.582-0.658,1.377-0.985,2.385-0.985c0.616,0,1.171,0.145,1.669,0.434c0.493,0.292,0.891,0.725,1.192,1.305
				C178.235,279.011,178.386,279.72,178.386,280.554z"/>
			<path fill="#5D6267" d="M221.444,301.118c-1.69,1.313-3.331,2.295-4.91,2.95c-1.584,0.658-3.358,0.985-5.324,0.985
				c-1.797,0-3.37-0.355-4.73-1.061c-1.36-0.705-2.407-1.665-3.14-2.875c-0.739-1.209-1.104-2.519-1.104-3.933
				c0-1.909,0.605-3.536,1.82-4.879c1.214-1.346,2.884-2.248,4.999-2.707c0.448-0.104,1.551-0.333,3.309-0.691
				c1.764-0.355,3.27-0.686,4.53-0.983c1.253-0.299,2.619-0.66,4.087-1.086c-0.084-1.839-0.454-3.188-1.114-4.048
				c-0.661-0.862-2.021-1.291-4.093-1.291c-1.774,0-3.113,0.247-4.009,0.739c-0.901,0.496-1.669,1.234-2.313,2.223
				c-0.639,0.988-1.092,1.641-1.354,1.957c-0.269,0.313-0.834,0.47-1.708,0.47c-0.789,0-1.466-0.249-2.037-0.753
				c-0.577-0.501-0.862-1.145-0.862-1.929c0-1.226,0.437-2.418,1.31-3.578c0.873-1.156,2.228-2.11,4.076-2.861
				c1.847-0.747,4.148-1.123,6.897-1.123c3.079,0,5.497,0.361,7.261,1.086c1.758,0.722,3.001,1.867,3.729,3.435
				c0.728,1.567,1.091,3.645,1.091,6.233c0,1.635-0.006,3.023-0.011,4.163c-0.012,1.142-0.022,2.41-0.039,3.807
				c0,1.31,0.218,2.679,0.655,4.101c0.431,1.422,0.649,2.337,0.649,2.746c0,0.714-0.336,1.366-1.014,1.955
				c-0.671,0.587-1.439,0.881-2.295,0.881c-0.717,0-1.423-0.339-2.128-1.01C222.973,303.371,222.228,302.397,221.444,301.118z
				 M220.98,291.029c-1.025,0.373-2.515,0.77-4.474,1.188c-1.96,0.417-3.314,0.724-4.064,0.921
				c-0.751,0.193-1.474,0.576-2.155,1.147c-0.684,0.571-1.024,1.366-1.024,2.387c0,1.059,0.402,1.957,1.203,2.696
				c0.807,0.742,1.854,1.112,3.157,1.112c1.383,0,2.659-0.303,3.83-0.907c1.175-0.605,2.031-1.383,2.581-2.337
				c0.633-1.056,0.946-2.794,0.946-5.21V291.029z"/>
			<path fill="#5D6267" d="M254.141,301.067v-0.688c-0.941,1.072-1.871,1.946-2.783,2.617c-0.912,0.672-1.903,1.185-2.974,1.534
				c-1.068,0.347-2.239,0.523-3.504,0.523c-1.674,0-3.225-0.355-4.652-1.061c-1.428-0.705-2.665-1.716-3.706-3.028
				c-1.042-1.311-1.831-2.853-2.374-4.622c-0.538-1.772-0.806-3.687-0.806-5.75c0-4.358,1.068-7.757,3.208-10.192
				c2.138-2.436,4.948-3.653,8.437-3.653c2.016,0,3.718,0.347,5.1,1.036c1.39,0.689,2.738,1.75,4.055,3.18v-10.296
				c0-1.43,0.284-2.511,0.861-3.244c0.571-0.731,1.389-1.098,2.447-1.098c1.058,0,1.875,0.336,2.446,1.011
				c0.576,0.672,0.861,1.663,0.861,2.976v30.755c0,1.33-0.308,2.324-0.923,2.99c-0.617,0.663-1.411,0.996-2.385,0.996
				c-0.957,0-1.748-0.347-2.374-1.036C254.454,303.329,254.141,302.343,254.141,301.067z M240.367,290.825
				c0,1.889,0.298,3.499,0.885,4.826c0.594,1.33,1.4,2.329,2.424,3.004c1.024,0.671,2.145,1.007,3.359,1.007
				c1.232,0,2.357-0.319,3.376-0.957c1.014-0.638,1.825-1.618,2.436-2.939c0.604-1.318,0.907-2.967,0.907-4.94
				c0-1.858-0.303-3.455-0.907-4.792c-0.61-1.335-1.428-2.357-2.463-3.065c-1.037-0.706-2.167-1.059-3.398-1.059
				c-1.282,0-2.431,0.361-3.438,1.086c-1.009,0.722-1.792,1.76-2.346,3.116C240.647,287.465,240.367,289.036,240.367,290.825z"/>
			<path fill="#5D6267" d="M293.99,290.875c0,2.077-0.325,3.992-0.974,5.747c-0.649,1.755-1.591,3.261-2.822,4.521
				c-1.226,1.263-2.698,2.229-4.405,2.9c-1.714,0.671-3.634,1.01-5.773,1.01c-2.121,0-4.024-0.342-5.721-1.022
				c-1.69-0.683-3.158-1.657-4.395-2.925c-1.237-1.271-2.178-2.769-2.821-4.496c-0.645-1.73-0.964-3.642-0.964-5.736
				c0-2.111,0.325-4.045,0.974-5.8c0.649-1.752,1.585-3.253,2.8-4.496c1.21-1.243,2.682-2.2,4.406-2.872
				c1.729-0.675,3.634-1.011,5.721-1.011c2.122,0,4.043,0.342,5.773,1.022c1.724,0.683,3.202,1.651,4.433,2.911
				c1.232,1.263,2.167,2.76,2.811,4.499C293.671,286.864,293.99,288.781,293.99,290.875z M286.964,290.875
				c0-2.844-0.627-5.058-1.881-6.643c-1.26-1.584-2.945-2.373-5.067-2.373c-1.364,0-2.574,0.353-3.615,1.058
				c-1.043,0.708-1.848,1.75-2.407,3.13c-0.565,1.38-0.852,2.99-0.852,4.829c0,1.823,0.28,3.415,0.834,4.775
				c0.555,1.363,1.35,2.408,2.385,3.13c1.036,0.725,2.257,1.086,3.655,1.086c2.122,0,3.808-0.795,5.067-2.388
				C286.337,295.886,286.964,293.686,286.964,290.875z"/>
			<path fill="#5D6267" d="M306.458,294.987v5.825c0,1.414-0.336,2.475-1.002,3.18c-0.666,0.706-1.512,1.061-2.542,1.061
				c-1.007,0-1.836-0.358-2.485-1.075c-0.65-0.714-0.975-1.769-0.975-3.167v-19.416c0-3.132,1.137-4.7,3.41-4.7
				c1.164,0,2.004,0.367,2.514,1.1c0.515,0.73,0.795,1.813,0.851,3.242c0.835-1.428,1.691-2.511,2.575-3.242
				c0.879-0.733,2.055-1.1,3.527-1.1c1.467,0,2.895,0.367,4.277,1.1c1.389,0.73,2.083,1.702,2.083,2.911
				c0,0.851-0.297,1.554-0.885,2.108c-0.594,0.551-1.232,0.829-1.914,0.829c-0.258,0-0.875-0.157-1.859-0.47
				c-0.979-0.316-1.848-0.473-2.604-0.473c-1.024,0-1.864,0.266-2.513,0.803c-0.65,0.538-1.154,1.333-1.513,2.388
				c-0.358,1.059-0.604,2.312-0.744,3.768C306.525,291.119,306.458,292.894,306.458,294.987z"/>
			<path fill="#5D6267" d="M341.998,280.554v0.842c1.231-1.618,2.58-2.805,4.042-3.563c1.461-0.759,3.141-1.137,5.038-1.137
				c1.848,0,3.5,0.4,4.95,1.201c1.455,0.801,2.541,1.935,3.258,3.399c0.458,0.85,0.762,1.769,0.896,2.757
				c0.14,0.988,0.208,2.248,0.208,3.782v12.977c0,1.397-0.325,2.452-0.963,3.167c-0.64,0.717-1.473,1.075-2.503,1.075
				c-1.041,0-1.888-0.367-2.537-1.1c-0.649-0.731-0.974-1.781-0.974-3.141V289.19c0-2.301-0.325-4.059-0.963-5.277
				c-0.639-1.217-1.921-1.825-3.835-1.825c-1.248,0-2.385,0.37-3.409,1.111c-1.025,0.739-1.78,1.758-2.256,3.051
				c-0.342,1.039-0.516,2.981-0.516,5.825v8.736c0,1.414-0.325,2.475-0.986,3.18c-0.659,0.706-1.505,1.061-2.553,1.061
				c-1.007,0-1.836-0.367-2.485-1.1c-0.649-0.731-0.974-1.781-0.974-3.141v-20.155c0-1.329,0.291-2.32,0.868-2.975
				c0.581-0.658,1.376-0.985,2.391-0.985c0.609,0,1.169,0.145,1.662,0.434c0.499,0.292,0.896,0.725,1.192,1.305
				C341.852,279.011,341.998,279.72,341.998,280.554z"/>
			<path fill="#5D6267" d="M385.056,301.118c-1.69,1.313-3.324,2.295-4.91,2.95c-1.578,0.658-3.354,0.985-5.317,0.985
				c-1.798,0-3.376-0.355-4.73-1.061c-1.362-0.705-2.409-1.665-3.147-2.875c-0.733-1.209-1.098-2.519-1.098-3.933
				c0-1.909,0.605-3.536,1.82-4.879c1.215-1.346,2.878-2.248,4.999-2.707c0.442-0.104,1.545-0.333,3.309-0.691
				c1.764-0.355,3.271-0.686,4.524-0.983c1.259-0.299,2.619-0.66,4.092-1.086c-0.084-1.839-0.458-3.188-1.113-4.048
				c-0.661-0.862-2.021-1.291-4.093-1.291c-1.78,0-3.112,0.247-4.015,0.739c-0.896,0.496-1.662,1.234-2.307,2.223
				c-0.643,0.988-1.092,1.641-1.36,1.957c-0.263,0.313-0.834,0.47-1.701,0.47c-0.79,0-1.468-0.249-2.044-0.753
				c-0.571-0.501-0.856-1.145-0.856-1.929c0-1.226,0.437-2.418,1.311-3.578c0.867-1.156,2.228-2.11,4.075-2.861
				c1.848-0.747,4.143-1.123,6.897-1.123c3.078,0,5.497,0.361,7.255,1.086c1.765,0.722,3.007,1.867,3.734,3.435
				c0.729,1.567,1.092,3.645,1.092,6.233c0,1.635-0.006,3.023-0.016,4.163c-0.006,1.142-0.018,2.41-0.04,3.807
				c0,1.31,0.218,2.679,0.655,4.101c0.436,1.422,0.655,2.337,0.655,2.746c0,0.714-0.336,1.366-1.015,1.955
				c-0.676,0.587-1.438,0.881-2.295,0.881c-0.716,0-1.427-0.339-2.127-1.01C386.59,303.371,385.845,302.397,385.056,301.118z
				 M384.597,291.029c-1.023,0.373-2.52,0.77-4.473,1.188c-1.96,0.417-3.314,0.724-4.065,0.921
				c-0.755,0.193-1.472,0.576-2.155,1.147c-0.682,0.571-1.023,1.366-1.023,2.387c0,1.059,0.396,1.957,1.203,2.696
				c0.807,0.742,1.854,1.112,3.152,1.112c1.388,0,2.665-0.303,3.835-0.907c1.169-0.605,2.032-1.383,2.575-2.337
				c0.633-1.056,0.951-2.794,0.951-5.21V291.029z"/>
			<path fill="#5D6267" d="M423.681,296.417c0,0.871-0.264,1.797-0.784,2.786c-0.52,0.988-1.315,1.928-2.385,2.821
				c-1.069,0.896-2.413,1.615-4.036,2.158c-1.624,0.546-3.455,0.817-5.493,0.817c-4.321,0-7.698-1.254-10.127-3.768
				c-2.43-2.511-3.64-5.879-3.64-10.103c0-2.861,0.555-5.389,1.663-7.586c1.114-2.198,2.721-3.896,4.82-5.098
				c2.105-1.201,4.619-1.8,7.541-1.8c1.813,0,3.478,0.264,4.988,0.793c1.512,0.526,2.8,1.208,3.847,2.043
				c1.053,0.834,1.858,1.725,2.413,2.667c0.554,0.947,0.834,1.828,0.834,2.646c0,0.834-0.313,1.542-0.936,2.119
				c-0.627,0.579-1.382,0.871-2.272,0.871c-0.582,0-1.063-0.151-1.449-0.448c-0.382-0.297-0.813-0.778-1.294-1.444
				c-0.856-1.293-1.746-2.265-2.683-2.911c-0.929-0.647-2.109-0.972-3.549-0.972c-2.071,0-3.734,0.806-4.999,2.416
				c-1.267,1.607-1.898,3.81-1.898,6.603c0,1.31,0.162,2.517,0.487,3.614c0.324,1.098,0.795,2.035,1.411,2.811
				c0.615,0.776,1.354,1.36,2.228,1.761s1.831,0.602,2.872,0.602c1.406,0,2.604-0.325,3.605-0.972
				c1.003-0.646,1.888-1.635,2.653-2.961c0.426-0.784,0.891-1.397,1.384-1.839c0.498-0.445,1.103-0.666,1.824-0.666
				c0.852,0,1.563,0.325,2.128,0.971C423.401,294.996,423.681,295.684,423.681,296.417z"/>
			<path fill="#5D6267" d="M470.226,290.875c0,2.077-0.324,3.992-0.973,5.747c-0.649,1.755-1.591,3.261-2.822,4.521
				c-1.231,1.263-2.704,2.229-4.411,2.9c-1.708,0.671-3.634,1.01-5.772,1.01c-2.116,0-4.025-0.342-5.716-1.022
				c-1.696-0.683-3.158-1.657-4.4-2.925c-1.237-1.271-2.178-2.769-2.821-4.496c-0.639-1.73-0.958-3.642-0.958-5.736
				c0-2.111,0.325-4.045,0.974-5.8c0.649-1.752,1.579-3.253,2.795-4.496c1.215-1.243,2.681-2.2,4.411-2.872
				c1.724-0.675,3.634-1.011,5.716-1.011c2.122,0,4.042,0.342,5.772,1.022c1.729,0.683,3.208,1.651,4.435,2.911
				c1.23,1.263,2.166,2.76,2.809,4.499C469.908,286.864,470.226,288.781,470.226,290.875z M463.2,290.875
				c0-2.844-0.627-5.058-1.886-6.643c-1.261-1.584-2.945-2.373-5.067-2.373c-1.365,0-2.569,0.353-3.616,1.058
				c-1.041,0.708-1.842,1.75-2.407,3.13s-0.846,2.99-0.846,4.829c0,1.823,0.274,3.415,0.834,4.775
				c0.555,1.363,1.35,2.408,2.385,3.13c1.03,0.725,2.251,1.086,3.65,1.086c2.122,0,3.807-0.795,5.067-2.388
				C462.573,295.886,463.2,293.686,463.2,290.875z"/>
			<path fill="#5D6267" d="M482.102,280.554v0.842c1.231-1.618,2.575-2.805,4.036-3.563c1.461-0.759,3.141-1.137,5.039-1.137
				c1.848,0,3.499,0.4,4.949,1.201c1.455,0.801,2.541,1.935,3.258,3.399c0.46,0.85,0.762,1.769,0.901,2.757
				c0.135,0.988,0.202,2.248,0.202,3.782v12.977c0,1.397-0.319,2.452-0.963,3.167c-0.639,0.717-1.473,1.075-2.497,1.075
				c-1.047,0-1.894-0.367-2.543-1.1c-0.648-0.731-0.973-1.781-0.973-3.141V289.19c0-2.301-0.32-4.059-0.963-5.277
				c-0.639-1.217-1.922-1.825-3.836-1.825c-1.248,0-2.385,0.37-3.409,1.111c-1.024,0.739-1.774,1.758-2.256,3.051
				c-0.342,1.039-0.51,2.981-0.51,5.825v8.736c0,1.414-0.331,2.475-0.99,3.18c-0.655,0.706-1.507,1.061-2.555,1.061
				c-1.007,0-1.836-0.367-2.485-1.1c-0.649-0.731-0.975-1.781-0.975-3.141v-20.155c0-1.329,0.292-2.32,0.875-2.975
				c0.575-0.658,1.372-0.985,2.385-0.985c0.615,0,1.169,0.145,1.662,0.434c0.499,0.292,0.896,0.725,1.198,1.305
				C481.949,279.011,482.102,279.72,482.102,280.554z"/>
			<path fill="#5D6267" d="M525.159,301.118c-1.696,1.313-3.33,2.295-4.915,2.95c-1.579,0.658-3.354,0.985-5.318,0.985
				c-1.798,0-3.376-0.355-4.73-1.061c-1.36-0.705-2.407-1.665-3.142-2.875c-0.739-1.209-1.103-2.519-1.103-3.933
				c0-1.909,0.604-3.536,1.819-4.879c1.215-1.346,2.883-2.248,5-2.707c0.447-0.104,1.544-0.333,3.308-0.691
				c1.764-0.355,3.271-0.686,4.53-0.983c1.253-0.299,2.619-0.66,4.086-1.086c-0.084-1.839-0.458-3.188-1.113-4.048
				c-0.661-0.862-2.021-1.291-4.093-1.291c-1.774,0-3.112,0.247-4.015,0.739c-0.896,0.496-1.662,1.234-2.306,2.223
				c-0.639,0.988-1.093,1.641-1.36,1.957c-0.264,0.313-0.835,0.47-1.702,0.47c-0.789,0-1.468-0.249-2.038-0.753
				c-0.577-0.501-0.862-1.145-0.862-1.929c0-1.226,0.438-2.418,1.311-3.578c0.873-1.156,2.228-2.11,4.075-2.861
				c1.848-0.747,4.143-1.123,6.897-1.123c3.079,0,5.498,0.361,7.256,1.086c1.764,0.722,3.006,1.867,3.733,3.435
				c0.729,1.567,1.093,3.645,1.093,6.233c0,1.635-0.006,3.023-0.011,4.163c-0.012,1.142-0.023,2.41-0.046,3.807
				c0,1.31,0.224,2.679,0.655,4.101c0.438,1.422,0.655,2.337,0.655,2.746c0,0.714-0.336,1.366-1.013,1.955
				c-0.673,0.587-1.44,0.881-2.297,0.881c-0.716,0-1.427-0.339-2.127-1.01C526.688,303.371,525.943,302.397,525.159,301.118z
				 M524.694,291.029c-1.023,0.373-2.52,0.77-4.473,1.188c-1.96,0.417-3.314,0.724-4.065,0.921
				c-0.755,0.193-1.472,0.576-2.155,1.147c-0.682,0.571-1.023,1.366-1.023,2.387c0,1.059,0.396,1.957,1.203,2.696
				c0.807,0.742,1.854,1.112,3.152,1.112c1.388,0,2.665-0.303,3.835-0.907c1.171-0.605,2.032-1.383,2.581-2.337
				c0.632-1.056,0.945-2.794,0.945-5.21V291.029z"/>
			<path fill="#5D6267" d="M538.669,300.812v-30.246c0-1.396,0.313-2.452,0.939-3.169c0.623-0.714,1.468-1.072,2.526-1.072
				c1.058,0,1.914,0.353,2.563,1.061c0.649,0.705,0.975,1.767,0.975,3.18v30.246c0,1.414-0.33,2.475-0.986,3.18
				c-0.66,0.706-1.511,1.061-2.552,1.061c-1.024,0-1.859-0.367-2.503-1.1C538.993,303.222,538.669,302.172,538.669,300.812z"/>
			<path fill="#5D6267" d="M557.648,305.104c-1.126,0-2.1-0.344-2.923-1.036c-0.823-0.689-1.232-1.655-1.232-2.897
				c0-1.075,0.403-1.976,1.209-2.71c0.801-0.73,1.753-1.097,2.845-1.097c0.823,0,1.563,0.221,2.229,0.664
				c0.672,0.442,1.192,1.094,1.567,1.954s0.566,1.92,0.566,3.18c0,1.688-0.365,3.266-1.082,4.739
				c-0.716,1.472-1.589,2.639-2.625,3.499c-1.035,0.862-1.971,1.291-2.811,1.291c-0.532,0-0.963-0.174-1.293-0.523
				c-0.336-0.351-0.499-0.753-0.499-1.212c0-0.7,0.348-1.26,1.047-1.688C556.651,308.16,557.648,306.772,557.648,305.104z"/>
			<path fill="#5D6267" d="M595.656,298.769l-6.03-23.86v25.854c0,1.43-0.318,2.502-0.963,3.216
				c-0.638,0.717-1.488,1.075-2.547,1.075c-1.024,0-1.864-0.355-2.513-1.061c-0.649-0.705-0.975-1.783-0.975-3.23v-29.633
				c0-1.635,0.425-2.738,1.282-3.309c0.856-0.571,2.01-0.856,3.46-0.856h2.362c1.417,0,2.446,0.128,3.091,0.383
				c0.638,0.255,1.113,0.716,1.421,1.38c0.309,0.663,0.661,1.747,1.053,3.244l5.459,20.513l5.464-20.513
				c0.392-1.498,0.745-2.581,1.053-3.244c0.308-0.664,0.784-1.125,1.422-1.38c0.644-0.255,1.674-0.383,3.09-0.383h2.357
				c1.456,0,2.609,0.285,3.466,0.856c0.851,0.571,1.282,1.673,1.282,3.309v29.633c0,1.43-0.319,2.502-0.964,3.216
				c-0.638,0.717-1.5,1.075-2.575,1.075c-1.013,0-1.842-0.358-2.491-1.075c-0.649-0.714-0.975-1.786-0.975-3.216v-25.854
				l-6.023,23.86c-0.392,1.548-0.717,2.685-0.963,3.41s-0.705,1.383-1.372,1.979c-0.665,0.596-1.59,0.896-2.771,0.896
				c-0.885,0-1.641-0.193-2.256-0.577c-0.616-0.383-1.092-0.871-1.434-1.466c-0.342-0.597-0.611-1.257-0.812-1.982
				C596.059,300.306,595.863,299.553,595.656,298.769z"/>
			<path fill="#5D6267" d="M625.329,297.134l8.408-12.235l-7.076-10.884c-0.666-1.056-1.17-1.962-1.5-2.721
				c-0.337-0.759-0.499-1.486-0.499-2.184c0-0.717,0.319-1.358,0.957-1.929c0.645-0.571,1.428-0.857,2.347-0.857
				c1.063,0,1.886,0.311,2.474,0.932c0.595,0.622,1.411,1.775,2.453,3.463l5.643,9.092l6.024-9.092
				c0.498-0.767,0.918-1.422,1.271-1.968c0.348-0.546,0.689-0.997,1.014-1.355c0.325-0.355,0.688-0.625,1.092-0.803
				c0.397-0.179,0.867-0.269,1.394-0.269c0.958,0,1.741,0.286,2.347,0.857c0.609,0.571,0.912,1.249,0.912,2.03
				c0,1.142-0.661,2.693-1.977,4.649l-7.412,11.038l7.978,12.235c0.717,1.072,1.237,1.962,1.562,2.668
				c0.325,0.708,0.487,1.377,0.487,2.007c0,0.596-0.146,1.139-0.436,1.635c-0.287,0.493-0.7,0.885-1.227,1.176
				c-0.531,0.288-1.131,0.434-1.798,0.434c-0.717,0-1.326-0.151-1.819-0.448c-0.498-0.3-0.901-0.669-1.203-1.111
				c-0.313-0.442-0.885-1.302-1.719-2.581l-6.617-10.372l-7.027,10.68c-0.548,0.851-0.94,1.447-1.17,1.789
				c-0.229,0.338-0.51,0.671-0.834,0.996c-0.325,0.322-0.705,0.577-1.152,0.764c-0.443,0.188-0.963,0.283-1.563,0.283
				c-0.924,0-1.691-0.283-2.295-0.845c-0.611-0.56-0.913-1.377-0.913-2.449C623.453,300.496,624.08,298.957,625.329,297.134z"/>
		</g>
	</g>
</g>
<g id="Contacto">
</g>
<g id="Logros">
</g>
<g id="Aliados">
</g>
<g id="Recursos">
</g>
<g id="Cartelera">
</g>
<g id="Presentación">
</g>
<g id="Home_00000100372908513593707910000013442467099043403707_">
</g>
<g id="logo_GMW">
</g>
</svg>
